<svg id="Layer_1" data-name="Layer 1" xmlns="http://www.w3.org/2000/svg" viewBox="0 0 475.79 382"><defs><style>.cls-1,.cls-7{fill:none;stroke-miterlimit:10;}.cls-1{stroke:gray;stroke-width:9px;}.cls-2{fill:#fff;}.cls-3{fill:#f0f0f0;}.cls-4{fill:#292436;}.cls-5{fill:#5563ff;}.cls-6{fill:#f44400;}.cls-7{stroke:#ff3900;stroke-width:4px;}</style></defs><path class="cls-1" d="M686.5,397.5c15.8-25.24,42.47-58.41,82-66,39.13-7.51,61.35,15.72,96,8,23.4-5.21,55.25-25.16,84-97" transform="translate(-476.89 -207)"/><rect class="cls-2" x="711.1" y="340.28" width="57" height="136.88" rx="28.5" transform="translate(-572.63 329.29) rotate(-37.61)"/><rect class="cls-2" x="197.11" y="252" width="57" height="130" rx="28.5"/><rect class="cls-2" x="508.5" y="300.5" width="57" height="130" rx="28.5" transform="translate(645.15 -123.81) rotate(120)"/><rect class="cls-2" x="92.11" y="252" width="57" height="130" rx="28.5"/><rect class="cls-3" x="92.11" y="113" width="162" height="218" rx="66.81"/><ellipse class="cls-3" cx="173.11" cy="85.5" rx="94" ry="85.5"/><ellipse cx="172.61" cy="85.5" rx="83.5" ry="78.5"/><path class="cls-4" d="M656,214.23,572.07,321.92A74,74,0,0,1,566,292.5c0-43.35,37.38-78.5,83.5-78.5Q652.75,214,656,214.23Z" transform="translate(-476.89 -207)"/><path class="cls-4" d="M577.42,330.51l9.89,7.64L681,218.85c-.65-.17-1.29-.37-1.94-.53A92.79,92.79,0,0,0,664.49,216L576.36,328.21C576.71,329,577.06,329.75,577.42,330.51Z" transform="translate(-476.89 -207)"/><ellipse class="cls-5" cx="120.11" cy="180.5" rx="6" ry="5.5"/><ellipse class="cls-6" cx="143.11" cy="180.5" rx="6" ry="5.5"/><line class="cls-7" x1="92.11" y1="346.67" x2="149.11" y2="346.67"/><line class="cls-7" x1="197.11" y1="347" x2="254.11" y2="347"/><line class="cls-7" x1="259.1" y1="243.69" x2="302.13" y2="206.31"/><line class="cls-7" x1="22.36" y1="169.68" x2="50.86" y2="120.32"/></svg>