<svg id="Layer_1" data-name="Layer 1" xmlns="http://www.w3.org/2000/svg" xmlns:xlink="http://www.w3.org/1999/xlink" viewBox="0 0 443.6 335.64"><defs><style>.cls-1{fill:url(#linear-gradient);}.cls-2{fill:url(#linear-gradient-2);}.cls-3{fill:url(#linear-gradient-3);}</style><linearGradient id="linear-gradient" x1="1253.49" y1="780.28" x2="1478.01" y2="555.76" gradientUnits="userSpaceOnUse"><stop offset="0" stop-color="aqua"/><stop offset="0.2" stop-color="#03fcff"/><stop offset="0.34" stop-color="#0cf3ff"/><stop offset="0.45" stop-color="#1be4ff"/><stop offset="0.56" stop-color="#30cfff"/><stop offset="0.65" stop-color="#4bb4ff"/><stop offset="0.74" stop-color="#6d92ff"/><stop offset="0.83" stop-color="#956aff"/><stop offset="0.91" stop-color="#c43bff"/><stop offset="0.99" stop-color="#f708ff"/><stop offset="1" stop-color="#f0f"/></linearGradient><linearGradient id="linear-gradient-2" x1="406.04" y1="76.56" x2="437.16" y2="45.44" xlink:href="#linear-gradient"/><linearGradient id="linear-gradient-3" x1="1132.11" y1="777.24" x2="1172.94" y2="736.4" gradientTransform="translate(696.27 -544.3) rotate(37.38)" xlink:href="#linear-gradient"/></defs><path class="cls-1" d="M1469.28,565.14a124.53,124.53,0,0,0-239,15.64,113,113,0,0,0,49.87,198.7,104.9,104.9,0,0,0,8.35,9.41c34.56,34.57,86,39.16,114.91,10.26,14.25-14.26,20.34-34,18.72-54.5,40.68,16.32,70.92,35.6,99.37,16.85,34.58-22.78,42.43-85.85,24-128C1532.33,603.38,1504.11,580.21,1469.28,565.14Z" transform="translate(-1125.9 -482.5)"/><circle class="cls-2" cx="421.6" cy="61" r="22"/><ellipse class="cls-3" cx="1152.53" cy="756.82" rx="28.98" ry="22" transform="translate(-1348.66 372.74) rotate(-37.38)"/></svg>