<svg id="Layer_1" data-name="Layer 1" xmlns="http://www.w3.org/2000/svg" xmlns:xlink="http://www.w3.org/1999/xlink" viewBox="0 0 1220.07 903.31"><defs><style>.cls-1{fill:url(#linear-gradient);}.cls-2{fill:url(#linear-gradient-2);}.cls-3{fill:url(#radial-gradient);}</style><linearGradient id="linear-gradient" x1="1456.5" y1="729.15" x2="1623.68" y2="896.33" gradientTransform="translate(-217.46 655.33) rotate(-23.34)" gradientUnits="userSpaceOnUse"><stop offset="0.18" stop-color="#3fffac"/><stop offset="0.54" stop-color="#acffab"/><stop offset="0.8" stop-color="#f7ffaa"/></linearGradient><linearGradient id="linear-gradient-2" x1="419.09" y1="412.93" x2="626.43" y2="318.09" gradientUnits="userSpaceOnUse"><stop offset="0.12" stop-color="#faff6a"/><stop offset="0.55" stop-color="#d2f2b5"/><stop offset="1" stop-color="#aae6ff"/></linearGradient><radialGradient id="radial-gradient" cx="1131.29" cy="119.94" r="98.49" gradientUnits="userSpaceOnUse"><stop offset="0" stop-color="#ff75ff"/><stop offset="0.37" stop-color="#ff75fd"/><stop offset="0.53" stop-color="#ff75f6"/><stop offset="0.64" stop-color="#ff75ea"/><stop offset="0.74" stop-color="#ff75d8"/><stop offset="0.82" stop-color="#ff75c1"/><stop offset="0.89" stop-color="#ff76a5"/><stop offset="0.96" stop-color="#ff7684"/><stop offset="1" stop-color="#ff766a"/></radialGradient></defs><path class="cls-1" d="M1375.19,867.25c-11.18-11-3.48-29.69,4.76-43,9.23-14.9,22.15-31.7,39.62-30.19,15.63,1.34,25.73,16.9,32,31.31s12.24,30.74,26.25,37.8c12.52,6.31,27.8,3,40.53-2.82,21.34-9.81,40.9-30.56,37.67-53.83-2.85-20.48-21.53-34.28-37.34-47.61a278.08,278.08,0,0,1-28.17-27.39c-11.42-12.8-21.93-27.27-25.37-44.07s1.84-36.37,16.35-45.52,34.33-5.53,48.24,4.5,23,25.24,31.07,40.39,15.45,30.95,27.18,43.46c6.5,6.94,14.22,12.76,20,20.29,16.55,21.49,13.61,53.82-2.09,75.94-8,11.24-18.82,20.52-24.84,32.9a49.9,49.9,0,0,0-3.6,33.23c1.52,6.29,4.29,12.65,2.93,19-1.5,7-7.64,11.91-13.85,15.4-25.87,14.54-60.13,12.56-84.15-4.86-10.76-7.8-19.8-18.5-32.3-23-14.1-5.11-29.77-1.34-44.69-3s-31.48-13.67-27.86-28.23" transform="translate(-399 -33.4)"/><path class="cls-2" d="M627,305a90,90,0,1,0-171.35,38.55,93.49,93.49,0,1,0,119.83,42.83A90,90,0,0,0,627,305Z" transform="translate(-399 -33.4)"/><path class="cls-3" d="M1208.65,38.85a55.32,55.32,0,0,0-70.34,19.68A122.68,122.68,0,0,0,1076,45.68c-8.89.56-17.87,2.16-25.75,6.32-16.21,8.55-25.6,28.37-22,46.33,2.46,12.11,10.14,22.7,19.61,30.64,1.52,1.28,3.19,2.66,3.55,4.61s-.72,3.85-1.77,5.53a270.06,270.06,0,0,1-15.51,22.22c-6.4,8.25-13.71,17.73-11.64,28,1.79,8.84,10.47,15,19.35,16.59s18-.3,26.78-2.21l32.44-7.07a52.16,52.16,0,0,0,6.41.4,53.31,53.31,0,0,0,34.07-12.25A44.82,44.82,0,0,0,1179,205c24.85,0,45-20.37,45-45.5a45.69,45.69,0,0,0-7.64-25.37,54.43,54.43,0,0,0,18.75-21.76C1248.17,85,1236.33,52,1208.65,38.85Z" transform="translate(-399 -33.4)"/></svg>