<svg id="Layer_1" data-name="Layer 1" xmlns="http://www.w3.org/2000/svg" xmlns:xlink="http://www.w3.org/1999/xlink" viewBox="0 0 822.98 599.55"><defs><style>.cls-1{fill:url(#linear-gradient);}.cls-2{fill:url(#linear-gradient-2);}.cls-3{fill:url(#linear-gradient-3);}.cls-4{fill:url(#linear-gradient-4);}.cls-5{fill:url(#linear-gradient-5);}.cls-6{fill:url(#linear-gradient-6);}.cls-7{fill:url(#linear-gradient-7);}.cls-8{fill:url(#linear-gradient-8);}</style><linearGradient id="linear-gradient" x1="1520.02" y1="1083.67" x2="1520.02" y2="487.75" gradientUnits="userSpaceOnUse"><stop offset="0" stop-color="#6ddeff"/><stop offset="0.12" stop-color="#70daff"/><stop offset="0.26" stop-color="#78cdff"/><stop offset="0.4" stop-color="#86b7ff"/><stop offset="0.54" stop-color="#9a99ff"/><stop offset="0.68" stop-color="#b472ff"/><stop offset="0.83" stop-color="#d343ff"/><stop offset="0.97" stop-color="#f70cff"/><stop offset="1" stop-color="#f0f"/></linearGradient><linearGradient id="linear-gradient-2" x1="1526.53" y1="1083.84" x2="1526.53" y2="491.11" xlink:href="#linear-gradient"/><linearGradient id="linear-gradient-3" x1="1533.05" y1="1084.01" x2="1533.05" y2="494.48" xlink:href="#linear-gradient"/><linearGradient id="linear-gradient-4" x1="1539.56" y1="1084.18" x2="1539.56" y2="497.84" xlink:href="#linear-gradient"/><linearGradient id="linear-gradient-5" x1="1546.08" y1="1084.35" x2="1546.08" y2="501.21" xlink:href="#linear-gradient"/><linearGradient id="linear-gradient-6" x1="1552.59" y1="1084.52" x2="1552.59" y2="504.57" xlink:href="#linear-gradient"/><linearGradient id="linear-gradient-7" x1="1559.11" y1="1084.69" x2="1559.11" y2="507.94" xlink:href="#linear-gradient"/><linearGradient id="linear-gradient-8" x1="1565.62" y1="1084.86" x2="1565.62" y2="511.31" xlink:href="#linear-gradient"/></defs><path class="cls-1" d="M1111.29,1084.2c33.38-67.79,50-142.33,82.79-210.37,15.16-31.47,33.78-61.71,58.17-86.91,24-24.8,53.61-43.83,85.62-56.58,71.58-28.52,150-27.52,225.57-22.2,37.61,2.65,75.66,4.54,112.77-3.54,34.15-7.44,66.69-21.59,96.29-40.07,60.2-37.58,107-92.47,144.47-152.07q7.37-11.73,14.33-23.7a1.51,1.51,0,0,0-2.6-1.52c-36.53,62.68-81.56,121.78-141.4,163.88-28.9,20.33-60.88,36.56-94.91,46.31-37.26,10.66-75.41,11.09-113.82,8.72-39.1-2.41-78.06-5.37-117.27-3.43-36.46,1.81-73.06,7.22-107.79,18.74-31.72,10.52-61.58,26.41-87.1,48.09-26.18,22.25-46.75,50.36-63.32,80.29-36.25,65.43-53.22,138.94-82.64,207.31q-5.55,12.91-11.75,25.54c-.85,1.73,1.73,3.25,2.59,1.51Z" transform="translate(-1108.53 -486.52)"/><path class="cls-2" d="M1124.88,1084.37c17-33.2,27.46-69.12,38-104.76,10.82-36.59,21.68-73.19,34.95-109,6.39-17.25,13.16-34.44,21.83-50.69a239.3,239.3,0,0,1,30.89-44.16c11.86-13.64,25.93-26.06,42.31-34,16.78-8.08,35.56-13.08,53.87-16.18,38.75-6.55,78.15-3.3,116.61,3.59,17.36,3.1,34.43,6.34,52,7.69,19.39,1.48,38.78,3.06,58.22,3.58a390.84,390.84,0,0,0,54.84-2.34c18.74-2.12,37-7.2,54.63-13.62,33-12,65.41-26.88,94.22-47.22C1836,635.84,1880.6,576.75,1917,515.55q6.95-11.67,13.7-23.43a1.5,1.5,0,0,0-2.59-1.51c-36.42,63.46-78.14,124.84-135.52,171.3-28.18,22.81-60.05,39.89-93.64,53.32-17.3,6.92-35,13.44-53.29,17.09a290.24,290.24,0,0,1-56.41,5.38c-19.45,0-38.86-1.15-58.25-2.6-18.64-1.39-36.94-3.09-55.31-6.6-37-7.09-74.86-12-112.59-8.11C1328.2,724,1292,733.62,1265,757c-26.47,22.92-45.9,53.8-59.44,85.79-14.58,34.45-25.88,70.29-36.67,106.07-11,36.34-20.46,73.41-34.9,108.57q-5.31,12.94-11.69,25.39c-.88,1.72,1.71,3.24,2.59,1.52Z" transform="translate(-1108.53 -486.52)"/><path class="cls-3" d="M1138.48,1084.53c18.13-34.12,26.85-72,36.09-109.2,9.65-38.89,19.54-77.72,30.91-116.14,5.28-17.87,10.59-35.85,18.22-52.88,7.56-16.87,18-31.67,29.57-46s25.5-27.68,42.38-35.72c9.25-4.4,19-5.93,29.17-7a208.87,208.87,0,0,1,29.27-1c39.77,1.36,76.83,14.28,112.77,30.45,16.26,7.32,32.05,15.55,49.57,19.47,9,2,18.46,2.85,27.66,3.92,9.84,1.14,19.71,2.09,29.61,2.65,37.26,2.11,75.93-1.56,109.88-18.1,16.34-8,31.57-18.14,47-27.7s30.9-19.37,45.44-30.38c29.29-22.19,54.31-49.91,76.65-79,23.49-30.54,44-63.28,63-96.73,4.87-8.55,9.67-17.13,14.5-25.7a1.5,1.5,0,0,0-2.59-1.51c-37.76,66.88-77.67,134.42-135.68,186-27.4,24.39-59.79,43.36-91.19,62.11-16.19,9.68-32.86,17.12-51.21,21.56-9.79,2.37-19.36,4.7-29.44,5.68a290,290,0,0,1-29.62,1.22c-19.8-.11-39.53-2.21-59.14-4.78-9.81-1.28-19.38-3-28.73-6.34-8.6-3.05-16.8-7.09-25.08-10.9-34.33-15.75-69.23-29.76-107.1-33.84a214.14,214.14,0,0,0-57.38,1.41c-17.52,2.86-32.54,12.5-45.48,24.31a165.09,165.09,0,0,0-18.61,20.5c-5.21,6.68-10.56,13.4-15.2,20.5-9.75,14.89-16.58,31.45-22.25,48.27-12.52,37.17-22.31,75.37-32,113.36s-17.26,77.23-31.65,113.83a252.34,252.34,0,0,1-12,26.11c-.91,1.7,1.68,3.22,2.59,1.51Z" transform="translate(-1108.53 -486.52)"/><path class="cls-4" d="M1152.07,1084.7c19.64-35.77,26.66-76.37,34.76-115.9,8.59-41.95,17.61-83.81,27.34-125.52,4.3-18.46,8.56-37,15.6-54.69,7.27-18.2,18.43-33.61,30.52-48.87s27.1-29.63,45.55-36.91a59.33,59.33,0,0,1,12.26-3.47c5.34-.88,11-.32,16.37,0a198.84,198.84,0,0,1,30.61,4.56,229.25,229.25,0,0,1,56.54,21.21c17.22,9.2,33.13,20.58,48.58,32.47,14.56,11.2,28.65,24.31,44.89,33.1,16.84,9.11,36.75,11.28,55.48,13.64a273.53,273.53,0,0,0,61.8,1.12,169,169,0,0,0,52.84-14.61c17.72-8,32.62-19.4,47-32.31,14.2-12.72,28.62-25.17,42.91-37.79a387.36,387.36,0,0,0,41.59-42.12c12.56-15.06,24.3-30.8,35.37-47,23.29-34,43.39-70,63.05-106.16,4.83-8.89,9.56-17.83,14.47-26.68.94-1.69-1.65-3.2-2.59-1.51-20.08,36.18-39.09,72.86-61.17,107.9-21.41,34-45,67.67-73.79,95.84-14,13.73-29.14,26.25-43.89,39.17s-28.46,26.64-44.69,37.43a114.71,114.71,0,0,1-12.16,7c-4.73,2.37-9.8,5.15-14.88,6.69-8.71,2.63-17,6.37-26,8.34-20.21,4.43-41.61,4.91-62.18,3.43-10.71-.77-21.37-2.12-32-3.83-9.82-1.58-19.66-3.1-29.07-6.42-18-6.34-32.71-20.07-47.52-31.63-15-11.74-30.28-23.33-46.72-33.1a239.2,239.2,0,0,0-53.56-23.52,208.76,208.76,0,0,0-28.9-6.48c-9.49-1.42-19.59-2.78-29.21-2.24-17.57,1-34.06,12.26-46.67,23.67A155.43,155.43,0,0,0,1256.25,740c-5.66,7.33-11.62,14.64-16.6,22.44-9.86,15.45-16.19,32.82-21.06,50.4-5.37,19.35-9.56,39-14,58.63q-7.06,31.34-13.69,62.77c-4.41,20.93-8.56,41.92-13.05,62.84-4.24,19.76-8.66,39.51-15.76,58.48a211.21,211.21,0,0,1-12.63,27.58c-.93,1.7,1.66,3.21,2.59,1.52Z" transform="translate(-1108.53 -486.52)"/><path class="cls-5" d="M1165.66,1084.86c21.43-37.87,26.57-81.84,33.57-124.07,7.52-45.3,15.56-90.52,23.54-135.75,3.39-19.25,7-38.62,14-56.94,7.39-19.3,19.75-35.59,32.6-51.57,12.62-15.68,28.7-30.17,48.25-36.32a53.17,53.17,0,0,1,14.14-2.56c5.51-.19,11.19,1.36,16.53,2.62a204.9,204.9,0,0,1,28.63,9,239.53,239.53,0,0,1,54.6,30.87c17,12.7,32,27.82,46,43.7,13.35,15.12,25.72,31.3,40,45.59,6.4,6.42,13.56,12.18,21.82,16,9.29,4.32,19.07,6.44,29,8.48,20.9,4.27,42.28,6.94,63.64,6.07,20.08-.81,40.87-3.71,59.09-12.59,3.53-1.72,7.23-3.88,10.91-5.11,4.27-1.42,8.29-4.44,12.13-6.79a134.7,134.7,0,0,0,23.76-18.58c14.62-14.22,26.58-30.81,39.63-46.42s26.63-31,38.83-47.39c13.07-17.56,24.62-36.33,35.73-55.17,22.68-38.44,42.17-78.48,62.66-118.09,4.77-9.23,9.38-18.52,14.36-27.65.93-1.7-1.66-3.22-2.59-1.52-21.18,38.84-39.76,79-61.11,117.8-10.72,19.47-22,38.66-34,57.34a514.26,514.26,0,0,1-38.8,52.22c-13.12,15.59-25.91,31.43-38.92,47.12a238.92,238.92,0,0,1-20.89,22.49A142.24,142.24,0,0,1,1707.41,816c-3.5,2.06-7.12,3.5-10.61,5.45a118.11,118.11,0,0,1-14.26,6.49c-9.94,3.89-20.5,6-31.06,7.33a234.53,234.53,0,0,1-66-1.3c-20.52-3.2-42.43-6.56-58.89-20.22-7.26-6-13.45-13.22-19.63-20.31-6.8-7.8-13.47-15.71-20.22-23.56-13.51-15.69-27.52-31-43.47-44.29a247.9,247.9,0,0,0-52.48-33.55,216.23,216.23,0,0,0-26.2-10.38c-9.35-3-19.43-6-29.24-7-18.42-1.8-37.08,10-50.47,21.28a139.37,139.37,0,0,0-19.66,21c-2.8,3.57-5.5,7.22-8.18,10.88-3.07,4.21-6.49,8.08-9.4,12.41-11,16.36-17.45,35.19-21.92,54.24-4.77,20.32-7.86,41.06-11.49,61.6q-6,34.1-11.9,68.2c-3.82,22.31-7.39,44.66-11.27,67-3.74,21.54-7.59,43.13-15,63.76a184.23,184.23,0,0,1-13,28.32,1.5,1.5,0,0,0,2.59,1.51Z" transform="translate(-1108.53 -486.52)"/><path class="cls-6" d="M1179.26,1085c23-39.47,26.19-86.17,32-130.49,6.32-48.48,13-96.89,19.2-145.38,2.65-20.92,5.82-42,13.32-61.84a119.55,119.55,0,0,1,14.53-27.63c2.76-3.83,5.94-7.38,8.74-11.23,3.45-4.73,6.92-9.45,10.6-14,13.33-16.5,30.8-31.6,51.82-36.89a52,52,0,0,1,15.21-1.63c5.81.29,11.39,2.61,16.81,4.6a215.08,215.08,0,0,1,30.21,13.94c39.48,22,71.18,54.89,95.87,92.41,12.45,18.92,23.65,38.63,36.11,57.54,5.14,7.8,10.57,15.54,17.38,22a69.55,69.55,0,0,0,23.34,14.36c10.49,4,22.14,6.16,33.13,8.26a247.25,247.25,0,0,0,33.75,4.23c21.22,1.1,43.58-.93,63.92-7.35,9.59-3,18.11-7.89,26.83-12.67,1-.58,1.84-1.62,2.9-2.18.91-.49,1.9-.57,2.81-1a49.35,49.35,0,0,0,6.23-4.26c4.32-3.1,8.61-6.25,12.69-9.66,16-13.41,28.38-31.41,39.12-49.16q17.73-29.26,35.13-58.77c11.94-20.12,22.56-40.89,32.75-61.94,10.37-21.44,20.21-43.13,30.09-64.79,10-22,19.36-44.37,30-66,4.92-10,9.53-20,14.78-29.85.91-1.7-1.68-3.22-2.59-1.52-11.16,20.85-20.64,42.5-30.35,64q-14.68,32.56-29.63,65c-10.11,21.86-20.48,43.63-31.62,65-10.66,20.43-23,39.93-34.87,59.66-11.44,19-21.85,38.6-35.76,56a140,140,0,0,1-22.22,22.71,147,147,0,0,1-13.37,9.81c-1.86,1.16-3.86,1.76-5.72,2.94-2.2,1.4-4.55,2.49-6.74,3.92-18.08,11.8-40.87,15.66-62.08,17-23.65,1.55-47.37-1.71-70.32-7.28-10.88-2.64-21.6-5.45-31.15-11.52-8.37-5.32-15-12.88-20.72-20.88-13.12-18.32-24.06-38.17-36.14-57.17-11.8-18.55-24.6-36.46-39.77-52.44a271.63,271.63,0,0,0-49.1-41,225,225,0,0,0-28.16-15.57q-6.66-3.07-13.53-5.71c-5.13-2-10.65-4.39-16.1-5.25-19.45-3.08-38.8,7.49-53.48,19.12-8.35,6.61-15.47,14.52-22,22.89-3,3.82-5.84,7.72-8.69,11.63-3.06,4.2-6.54,8-9.48,12.28-11.59,16.78-18.17,36.36-22.24,56.19-4.45,21.67-6.51,43.83-9.37,65.74-3.15,24.07-6.42,48.11-9.64,72.17-3.26,24.23-6.31,48.5-9.63,72.72-3.14,22.85-6.28,45.8-13.83,67.69a167.66,167.66,0,0,1-13.57,29.78,1.5,1.5,0,0,0,2.59,1.51Z" transform="translate(-1108.53 -486.52)"/><path class="cls-7" d="M1192.85,1085.19c11.81-19.81,18.6-42,22.29-64.68,4.1-25.15,5.93-50.73,8.43-76.08q7.59-77,14.48-154.09c1.94-21.88,4.86-44,12.85-64.58,3.94-10.15,9.18-21.74,16.95-29.55,3.66-3.68,6.42-8.56,9.49-12.74,3.48-4.74,7-9.44,10.84-13.93,14.44-17.08,34.58-32.69,57.44-35.41,5.49-.65,11.44-.67,16.79.84,5.57,1.56,11.11,4.76,16.25,7.38a236,236,0,0,1,28.81,17.39c39.27,27.66,70.2,66.06,92.33,108.42,11.15,21.33,20.6,43.48,30.93,65.2,8.75,18.42,17.71,39.18,35,51.21,9.24,6.42,19.57,9.73,30.29,12.75a265.56,265.56,0,0,0,36,7.6,197,197,0,0,0,69.27-2.77c10.59-2.32,21-5.66,30.57-10.9a75.66,75.66,0,0,0,6.92-4.27c2-1.37,3.76-3.14,5.89-4.26a25,25,0,0,0,2.28-1.07c1.36-.89,2.32-2.26,3.82-3a21.38,21.38,0,0,0,5-3.06c8.85-7.39,17.69-14.81,24.92-23.85a232.26,232.26,0,0,0,19.16-28c11.83-20.37,19.93-42.61,28.94-64.3,9.92-23.88,19.48-47.87,28.43-72.14,9-24.45,17.79-49,26.94-73.42q6.68-17.79,13.67-35.46c4.83-12.3,9.31-24.84,14.81-36.86,5-10.94,9.72-21.95,15.32-32.62.9-1.71-1.69-3.23-2.59-1.51-11.54,22-20.57,45.11-29.65,68.18-9.51,24.16-18.57,48.48-27.48,72.88s-17.62,48.86-27.17,73c-9.4,23.74-19.22,47.35-29.1,70.9-8.93,21.3-20.45,42.1-35.47,59.75a125.74,125.74,0,0,1-12.12,12.2c-2.06,1.84-4.17,3.64-6.28,5.42-2.4,2-4.85,4.56-7.72,5.87a23,23,0,0,0-4.58,3c-1.72,1.29-3.74,2.1-5.48,3.42a82.8,82.8,0,0,1-14.41,8.85c-10.31,4.92-21.5,7.76-32.7,9.79a187,187,0,0,1-36.42,3.17c-24.83-.41-49.37-5.71-72.91-13.39a62.28,62.28,0,0,1-27.13-18.07c-6.86-7.85-11.85-17.12-16.53-26.37-11.12-22-20.67-44.7-31.5-66.82-20.85-42.57-48.6-81.29-85.6-111.34a240.08,240.08,0,0,0-56.66-34.54c-9.15-3.92-20.17-3-29.61-.58-10.62,2.77-20.37,8-29.2,14.45a127.1,127.1,0,0,0-23.6,22.57c-7,8.53-13.08,17.72-20.15,26.11-6.62,7.88-11.43,17.89-15.25,27.37a168.61,168.61,0,0,0-9,31.29c-4.32,22.44-5.42,45.38-7.4,68.09-2.29,26.12-4.84,52.22-7.43,78.31-2.57,25.83-5,51.68-7.69,77.5-2.53,24.7-4.86,49.64-12.58,73.38a156.83,156.83,0,0,1-14.37,31.83,1.5,1.5,0,0,0,2.59,1.52Z" transform="translate(-1108.53 -486.52)"/><path class="cls-8" d="M1206.45,1085.35c13-21.41,19.46-45.79,22.77-70.47,1.81-13.54,2.54-27.24,3.57-40.85q1.61-21.25,3-42.51,2.88-42.36,5.28-84.75,1.23-21.3,2.4-42.61c.74-13.35,1-26.76,2.47-40.07a230.13,230.13,0,0,1,21.26-75.56c1.35-2.79,2.71-5.61,4.24-8.3s3.93-4.71,5.45-7.51a124.66,124.66,0,0,1,9.24-14.56,134.1,134.1,0,0,1,24.13-24.88c9.72-7.81,20.31-14.66,32.23-18.55,11.66-3.8,26-5.4,37.18.57a259.87,259.87,0,0,1,55.9,40.42c35.82,33.75,62.77,75.83,81.42,121.18,10.22,24.87,18.58,50.44,27.87,75.67,8,21.69,16.25,44.65,33.88,60.56,8.35,7.53,18.6,11.76,29.1,15.39a222.29,222.29,0,0,0,33.68,8.77c22.35,4,45.37,4.37,67.72.15a157.2,157.2,0,0,0,32.71-10,151.9,151.9,0,0,0,16-8,54.29,54.29,0,0,0,6.51-4c1.08-.86,2-2,3.06-2.82,1.27-1,2.81-1.39,4.07-2.32s1.94-2.1,3.13-2.94a32.77,32.77,0,0,1,3-1.45c2.48-1.42,4.59-4,6.64-6,4.56-4.33,9-8.83,13.12-13.57,8.32-9.52,14.89-20.21,21.09-31.2A243.65,243.65,0,0,0,1834,822.72c4.72-12.3,7.93-25.07,11.26-37.81,7-26.74,13.53-53.6,20.22-80.42,6.61-26.49,13.36-53,20.9-79.2,7.5-26.09,15.28-52.51,25.45-77.71,4.79-11.89,9.73-23.87,15.58-35.29.88-1.71-1.71-3.23-2.59-1.51-5.79,11.3-10.51,23.14-15.41,34.85-5.22,12.48-9.34,25.56-13.55,38.42-8.48,25.92-15.89,52.19-22.81,78.57s-13.44,53.18-20.07,79.79c-3.36,13.47-6.75,26.93-10.26,40.35-3.33,12.79-6.52,25.64-11.18,38a238.86,238.86,0,0,1-16.2,34c-6.55,11.52-13.56,22.51-22.52,32.32-4.25,4.65-8.76,9.08-13.38,13.36a21.23,21.23,0,0,1-4.67,3.4,12.49,12.49,0,0,0-2.09,1.14c-.91.69-1.56,1.71-2.45,2.43-1.06.86-2.38,1.31-3.52,2.07-2.37,1.57-4.2,3.72-6.64,5.22s-5.18,3.09-7.84,4.52a147,147,0,0,1-16.89,7.72c-44.35,17-94.7,12.13-138-5.58-23.08-9.42-35.46-33-44-55-9.76-25.11-18.06-50.76-27.7-75.92-9.3-24.3-20-48-33.82-70.1a350.73,350.73,0,0,0-41.56-54.26,276.09,276.09,0,0,0-51.71-43.27c-9.22-5.91-18.78-12.5-29.84-14-11.57-1.52-23.33,1.05-34,5.61-20.31,8.71-38.53,24.86-51.47,42.61-3.42,4.68-6.24,9.64-9.19,14.61-1.53,2.58-3.73,4.33-5.17,7q-2.36,4.39-4.53,8.9a223.71,223.71,0,0,0-13.48,35.5,243.36,243.36,0,0,0-7.38,36.56c-1.64,13.12-2,26.31-2.71,39.5q-2.36,42.52-4.91,85.05t-5.72,84.84c-2,27-3.33,54.21-11.14,80.31a146.63,146.63,0,0,1-15.16,34.47c-1,1.65,1.58,3.16,2.59,1.51Z" transform="translate(-1108.53 -486.52)"/></svg>