<svg xmlns="http://www.w3.org/2000/svg" xmlns:xlink="http://www.w3.org/1999/xlink" viewBox="0 0 1686.61 1023.5"><defs><style>.cls-1{isolation:isolate;}.cls-2{fill:url(#radial-gradient);}.cls-3{fill:url(#radial-gradient-2);}.cls-4{fill:url(#linear-gradient);}.cls-10,.cls-11,.cls-12,.cls-13,.cls-14,.cls-15,.cls-16,.cls-17,.cls-18,.cls-19,.cls-20,.cls-21,.cls-22,.cls-23,.cls-24,.cls-25,.cls-26,.cls-27,.cls-28,.cls-29,.cls-30,.cls-31,.cls-32,.cls-33,.cls-34,.cls-35,.cls-36,.cls-5,.cls-6,.cls-7,.cls-8,.cls-9{mix-blend-mode:overlay;}.cls-5{fill:url(#radial-gradient-3);}.cls-6{fill:url(#radial-gradient-4);}.cls-7{fill:url(#radial-gradient-5);}.cls-8{fill:url(#radial-gradient-6);}.cls-9{fill:url(#radial-gradient-7);}.cls-10{fill:url(#radial-gradient-8);}.cls-11{fill:url(#radial-gradient-9);}.cls-12{fill:url(#radial-gradient-10);}.cls-13{fill:url(#radial-gradient-11);}.cls-14{fill:url(#radial-gradient-12);}.cls-15{fill:url(#radial-gradient-13);}.cls-16{fill:url(#radial-gradient-14);}.cls-17{fill:url(#radial-gradient-15);}.cls-18{fill:url(#radial-gradient-16);}.cls-19{fill:url(#radial-gradient-17);}.cls-20{fill:url(#radial-gradient-18);}.cls-21{fill:url(#radial-gradient-19);}.cls-22{fill:url(#radial-gradient-20);}.cls-23{fill:url(#radial-gradient-21);}.cls-24{fill:url(#radial-gradient-22);}.cls-25{fill:url(#radial-gradient-23);}.cls-26{fill:url(#radial-gradient-24);}.cls-27{fill:url(#radial-gradient-25);}.cls-28{fill:url(#radial-gradient-26);}.cls-29{fill:url(#radial-gradient-27);}.cls-30{fill:url(#radial-gradient-28);}.cls-31{fill:url(#radial-gradient-29);}.cls-32{fill:url(#radial-gradient-30);}.cls-33{fill:url(#radial-gradient-31);}.cls-34{fill:url(#radial-gradient-32);}.cls-35{fill:url(#radial-gradient-33);}.cls-36{fill:url(#radial-gradient-34);}.cls-37{opacity:0.25;fill:url(#linear-gradient-2);}.cls-38,.cls-39{opacity:0.1;}.cls-38{fill:url(#linear-gradient-3);}.cls-39{fill:url(#linear-gradient-4);}.cls-40{fill:url(#linear-gradient-5);}.cls-41{fill:url(#linear-gradient-6);}.cls-42{fill:url(#linear-gradient-7);}.cls-43{fill:url(#linear-gradient-8);}.cls-44,.cls-45,.cls-46,.cls-47,.cls-48{opacity:0.2;}.cls-44{fill:url(#linear-gradient-9);}.cls-45{fill:url(#linear-gradient-10);}.cls-46{fill:url(#linear-gradient-11);}.cls-47{fill:url(#linear-gradient-12);}.cls-48{fill:url(#linear-gradient-13);}.cls-49{fill:url(#radial-gradient-35);}.cls-50{fill:url(#radial-gradient-36);}.cls-51{fill:url(#linear-gradient-14);}.cls-52{fill:url(#linear-gradient-15);}.cls-53{fill:url(#radial-gradient-37);}.cls-54{fill:url(#radial-gradient-38);}.cls-55{fill:url(#radial-gradient-39);}.cls-56{fill:url(#radial-gradient-40);}.cls-57{fill:url(#radial-gradient-41);}.cls-58{fill:url(#radial-gradient-42);}.cls-59{fill:url(#radial-gradient-43);}.cls-60{fill:url(#radial-gradient-44);}.cls-61{fill:url(#linear-gradient-16);}.cls-62{fill:url(#linear-gradient-17);}.cls-63{fill:url(#linear-gradient-18);}</style><radialGradient id="radial-gradient" cx="118.78" cy="-76.16" r="17.38" gradientTransform="matrix(0.33, 0.31, -0.26, 0.39, 594.37, 439.97)" gradientUnits="userSpaceOnUse"><stop offset="0" stop-color="#8b999d"/><stop offset="1" stop-color="#ff9bff" stop-opacity="0.05"/></radialGradient><radialGradient id="radial-gradient-2" cx="296.82" cy="-214.56" r="174.03" gradientTransform="matrix(0.45, 0.04, 0.04, 0.47, 602.81, 478.11)" xlink:href="#radial-gradient"/><linearGradient id="linear-gradient" x1="431.12" y1="926.47" x2="483.09" y2="956.47" gradientUnits="userSpaceOnUse"><stop offset="0" stop-color="#c5ff1b"/><stop offset="1" stop-color="#ff3e24"/></linearGradient><radialGradient id="radial-gradient-3" cx="-13234.41" cy="4633.07" r="245.59" gradientTransform="translate(1385.04 440.55) scale(0.07 0.09)" gradientUnits="userSpaceOnUse"><stop offset="0" stop-color="#8935ff"/><stop offset="1" stop-color="#fff" stop-opacity="0"/></radialGradient><radialGradient id="radial-gradient-4" cx="-13624.32" cy="4251.39" r="245.59" gradientTransform="translate(997.97 620.13) scale(0.05 0.04)" xlink:href="#radial-gradient-3"/><radialGradient id="radial-gradient-5" cx="1294.06" cy="5231.98" r="245.59" gradientTransform="translate(1385.04 440.55) scale(0.07 0.09)" gradientUnits="userSpaceOnUse"><stop offset="0" stop-color="#f2356b" stop-opacity="0.9"/><stop offset="1" stop-color="#fff" stop-opacity="0.05"/></radialGradient><radialGradient id="radial-gradient-6" cx="-306.53" cy="-211.05" r="245.59" xlink:href="#radial-gradient-5"/><radialGradient id="radial-gradient-7" cx="2402.17" cy="5918.96" r="245.59" gradientTransform="translate(1359.32 363.61) scale(0.09 0.1)" xlink:href="#radial-gradient-5"/><radialGradient id="radial-gradient-8" cx="2812.58" cy="211.71" r="245.59" xlink:href="#radial-gradient-5"/><radialGradient id="radial-gradient-9" cx="3633.4" cy="6605.95" r="245.59" xlink:href="#radial-gradient-5"/><radialGradient id="radial-gradient-10" cx="1.28" cy="6359.34" r="245.59" xlink:href="#radial-gradient-5"/><radialGradient id="radial-gradient-11" cx="-1004.23" cy="-1514.56" r="245.59" xlink:href="#radial-gradient-5"/><radialGradient id="radial-gradient-12" cx="-559.59" cy="-1215.09" r="245.59" gradientTransform="translate(1378.58 386.01) scale(0.05 0.05)" xlink:href="#radial-gradient-5"/><radialGradient id="radial-gradient-13" cx="-340.7" cy="-1761.19" r="245.59" xlink:href="#radial-gradient-5"/><radialGradient id="radial-gradient-14" cx="651.16" cy="-3458.18" r="245.59" xlink:href="#radial-gradient-5"/><radialGradient id="radial-gradient-15" cx="2976.74" cy="4492.15" r="245.59" xlink:href="#radial-gradient-5"/><radialGradient id="radial-gradient-16" cx="-4923.63" cy="-3734.05" r="245.59" gradientTransform="translate(1385.04 440.55) scale(0.07 0.09)" gradientUnits="userSpaceOnUse"><stop offset="0" stop-color="#f2356b"/><stop offset="1" stop-color="#fff" stop-opacity="0.1"/></radialGradient><radialGradient id="radial-gradient-17" cx="-13521.7" cy="2783.49" r="245.59" xlink:href="#radial-gradient-3"/><radialGradient id="radial-gradient-18" cx="-12598.28" cy="4122.23" r="245.59" xlink:href="#radial-gradient-3"/><radialGradient id="radial-gradient-19" cx="-11449.14" cy="4316" r="245.59" xlink:href="#radial-gradient-3"/><radialGradient id="radial-gradient-20" cx="-9228.12" cy="-1052.77" r="245.59" gradientTransform="translate(1466.47 344.44) scale(0.11 0.13)" gradientUnits="userSpaceOnUse"><stop offset="0" stop-color="#fff"/><stop offset="1" stop-color="#fff" stop-opacity="0"/></radialGradient><radialGradient id="radial-gradient-21" cx="-12271.28" cy="-802.29" r="245.59" xlink:href="#radial-gradient-20"/><radialGradient id="radial-gradient-22" cx="-13686.7" cy="4565.16" r="245.59" gradientTransform="translate(1185.38 493.02) scale(0.09 0.09)" xlink:href="#radial-gradient-20"/><radialGradient id="radial-gradient-23" cx="-9365.88" cy="5434.95" r="245.59" gradientTransform="translate(858.48 720.17) scale(0.05 0.05)" xlink:href="#radial-gradient-20"/><radialGradient id="radial-gradient-24" cx="-10671.85" cy="831.8" r="245.59" xlink:href="#radial-gradient-20"/><radialGradient id="radial-gradient-25" cx="-2943.65" cy="3479.75" r="245.59" xlink:href="#radial-gradient-20"/><radialGradient id="radial-gradient-26" cx="-3594.74" cy="3682.52" r="245.59" xlink:href="#radial-gradient-20"/><radialGradient id="radial-gradient-27" cx="-16689.06" cy="-1580.34" r="245.59" gradientTransform="translate(1249.08 234.63) scale(0.07 0.07)" xlink:href="#radial-gradient-20"/><radialGradient id="radial-gradient-28" cx="-8045.37" cy="-2220.3" r="245.59" gradientTransform="translate(1249.08 234.63) scale(0.07 0.07)" xlink:href="#radial-gradient-20"/><radialGradient id="radial-gradient-29" cx="-16282.55" cy="-424.29" r="245.59" gradientTransform="translate(1249.08 234.63) scale(0.07 0.07)" xlink:href="#radial-gradient-20"/><radialGradient id="radial-gradient-30" cx="-13788.2" cy="8040.09" r="245.59" gradientTransform="translate(1249.08 115.71) scale(0.07 0.09)" xlink:href="#radial-gradient-20"/><radialGradient id="radial-gradient-31" cx="-9509.15" cy="9299.35" r="245.59" gradientTransform="translate(1249.08 234.63) scale(0.07 0.07)" xlink:href="#radial-gradient-20"/><radialGradient id="radial-gradient-32" cx="-8665.83" cy="9113.09" r="245.59" gradientTransform="translate(1249.08 234.63) scale(0.07 0.07)" xlink:href="#radial-gradient-20"/><radialGradient id="radial-gradient-33" cx="-2504.87" cy="2513.61" r="245.59" gradientTransform="translate(1412.58 394.14) scale(0.08 0.1)" xlink:href="#radial-gradient-20"/><radialGradient id="radial-gradient-34" cx="815.24" cy="429.96" r="245.59" gradientTransform="translate(194.28 -15.67) scale(0.69 0.7)" xlink:href="#radial-gradient-20"/><linearGradient id="linear-gradient-2" x1="307.98" y1="274.38" x2="411.92" y2="334.39" gradientUnits="userSpaceOnUse"><stop offset="0" stop-color="#960019"/><stop offset="0.5" stop-color="#320064"/><stop offset="1" stop-color="#320064"/></linearGradient><linearGradient id="linear-gradient-3" x1="308.69" y1="253.23" x2="411.22" y2="355.76" gradientUnits="userSpaceOnUse"><stop offset="0" stop-color="#fff"/><stop offset="1" stop-color="#320064" stop-opacity="0.5"/></linearGradient><linearGradient id="linear-gradient-4" x1="425.21" y1="909.25" x2="490.7" y2="974.74" xlink:href="#linear-gradient-3"/><linearGradient id="linear-gradient-5" x1="316.64" y1="282.38" x2="403.26" y2="332.39" gradientUnits="userSpaceOnUse"><stop offset="0" stop-color="#c81e64"/><stop offset="0.5" stop-color="#4b005a"/><stop offset="1" stop-color="#32645a" stop-opacity="0.2"/></linearGradient><linearGradient id="linear-gradient-6" x1="477.09" y1="95.61" x2="560.68" y2="143.87" gradientTransform="translate(203.84 -183.81) rotate(24.88)" gradientUnits="userSpaceOnUse"><stop offset="0" stop-color="aqua"/><stop offset="0.5" stop-color="#4b005a"/><stop offset="1" stop-color="#32645a" stop-opacity="0.2"/></linearGradient><linearGradient id="linear-gradient-7" x1="402.23" y1="295.13" x2="447.01" y2="320.98" gradientUnits="userSpaceOnUse"><stop offset="0" stop-color="#ff503c"/><stop offset="0.5" stop-color="#4b005a"/><stop offset="1" stop-color="#32645a" stop-opacity="0.2"/></linearGradient><linearGradient id="linear-gradient-8" x1="398.93" y1="289.59" x2="453.64" y2="321.18" gradientUnits="userSpaceOnUse"><stop offset="0" stop-color="#ff503c" stop-opacity="0.2"/><stop offset="0.5" stop-color="#4b005a"/><stop offset="1" stop-color="#32645a" stop-opacity="0.2"/></linearGradient><linearGradient id="linear-gradient-9" x1="371.28" y1="296.46" x2="391.46" y2="308.11" gradientUnits="userSpaceOnUse"><stop offset="0" stop-color="#960019"/><stop offset="1" stop-color="#320064"/></linearGradient><linearGradient id="linear-gradient-10" x1="506.76" y1="102.88" x2="520.62" y2="110.87" gradientTransform="translate(11.87 217.89)" xlink:href="#linear-gradient-9"/><linearGradient id="linear-gradient-11" x1="570.14" y1="133.55" x2="583.99" y2="141.55" gradientTransform="translate(17.49 201.22)" xlink:href="#linear-gradient-9"/><linearGradient id="linear-gradient-12" x1="574.59" y1="613.45" x2="588.45" y2="621.45" gradientTransform="translate(1108.69 -225.66) rotate(90)" xlink:href="#linear-gradient-9"/><linearGradient id="linear-gradient-13" x1="645" y1="577.8" x2="658.85" y2="585.8" gradientTransform="translate(1151.04 -308.06) rotate(90)" xlink:href="#linear-gradient-9"/><radialGradient id="radial-gradient-35" cx="1381.72" cy="697.38" r="17.38" gradientTransform="matrix(0.63, 0.36, -0.49, 0.46, 832.26, 85.02)" gradientUnits="userSpaceOnUse"><stop offset="0" stop-color="#8b999d" stop-opacity="0.9"/><stop offset="1" stop-color="#fff" stop-opacity="0.05"/></radialGradient><radialGradient id="radial-gradient-36" cx="1559.76" cy="558.97" r="174.03" gradientTransform="matrix(0.72, -0.1, -0.1, 0.67, 436.21, 584.45)" xlink:href="#radial-gradient-35"/><linearGradient id="linear-gradient-14" x1="1259.44" y1="125.39" x2="1294.09" y2="125.39" gradientTransform="matrix(0.42, 0.42, -0.33, 0.54, 1030.98, -152.6)" gradientUnits="userSpaceOnUse"><stop offset="0" stop-color="#8b1f91" stop-opacity="0.8"/><stop offset="1" stop-color="#fff" stop-opacity="0.05"/></linearGradient><linearGradient id="linear-gradient-15" x1="1263.18" y1="-13.02" x2="1646.43" y2="-13.02" gradientTransform="matrix(0.59, 0.07, 0.07, 0.63, 760.64, 285.38)" xlink:href="#linear-gradient-14"/><radialGradient id="radial-gradient-37" cx="572.03" cy="-474.13" r="17.38" gradientTransform="matrix(0.42, 0.42, -0.33, 0.53, 503.98, 206.41)" xlink:href="#radial-gradient"/><radialGradient id="radial-gradient-38" cx="750.07" cy="-612.54" r="174.03" gradientTransform="matrix(0.59, 0.07, 0.07, 0.62, 596.09, 447.6)" xlink:href="#radial-gradient"/><radialGradient id="radial-gradient-39" cx="-483.28" cy="659.12" r="17.38" gradientTransform="matrix(0.23, 0.23, -0.18, 0.29, 776.59, 752.99)" gradientUnits="userSpaceOnUse"><stop offset="0" stop-color="#8b999d"/><stop offset="1" stop-color="#8ceeff" stop-opacity="0.7"/></radialGradient><radialGradient id="radial-gradient-40" cx="-305.24" cy="520.71" r="174.03" gradientTransform="matrix(0.32, 0.04, 0.04, 0.34, 676.56, 627.08)" xlink:href="#radial-gradient-39"/><radialGradient id="radial-gradient-41" cx="-208.38" cy="1019.51" r="17.38" gradientTransform="matrix(0.26, 0.39, -0.2, 0.49, 805.8, 416.09)" gradientUnits="userSpaceOnUse"><stop offset="0" stop-color="#8b999d"/><stop offset="1" stop-color="#5d57c1" stop-opacity="0.05"/></radialGradient><radialGradient id="radial-gradient-42" cx="-30.34" cy="881.1" r="174.03" gradientTransform="matrix(0.44, 0.14, 0.14, 0.51, 490.84, 344.7)" xlink:href="#radial-gradient-41"/><radialGradient id="radial-gradient-43" cx="2166.59" cy="405.74" r="17.38" gradientTransform="matrix(0.17, 0.26, -0.13, 0.32, 1455.76, 59.62)" xlink:href="#radial-gradient"/><radialGradient id="radial-gradient-44" cx="2344.63" cy="267.33" r="174.03" gradientTransform="matrix(0.29, 0.1, 0.1, 0.34, 1098.97, 400.33)" xlink:href="#radial-gradient"/><linearGradient id="linear-gradient-16" x1="627.31" y1="971.47" x2="643.9" y2="981.05" gradientTransform="translate(149.28 290.51) scale(0.77 0.7)" gradientUnits="userSpaceOnUse"><stop offset="0" stop-color="#6d321b" stop-opacity="0.6"/><stop offset="1" stop-color="#c3ca24" stop-opacity="0.4"/></linearGradient><linearGradient id="linear-gradient-17" x1="585.83" y1="993.82" x2="602.41" y2="1003.39" gradientTransform="matrix(0, 0.67, -0.61, 0, 1214.02, 598.91)" xlink:href="#linear-gradient-16"/><linearGradient id="linear-gradient-18" x1="575.63" y1="964.85" x2="592.21" y2="974.43" gradientTransform="matrix(0, 0.46, -0.36, 0, 958.31, 705.52)" xlink:href="#linear-gradient-16"/></defs><g class="cls-1"><g id="Layer_1" data-name="Layer 1"><ellipse class="cls-2" cx="653.56" cy="446.89" rx="7.24" ry="8.83" transform="translate(-298.44 462.45) rotate(-38.27)"/><path class="cls-3" d="M650.39,449.64l0-.05c-1.28-1.62-4.32-7.74-3-8.81L803.9,323.68c1.35-1.07,3.49-.63,4.76,1l.05.06c1.27,1.62,1.21,3.79-.15,4.86l-150.29,125C656.91,455.64,651.67,451.26,650.39,449.64Z" transform="translate(-162.11 -38.44)"/><circle class="cls-4" cx="457.11" cy="941.47" r="30"/><ellipse class="cls-5" cx="417.68" cy="835.06" rx="18.34" ry="20.45"/><ellipse class="cls-6" cx="382.18" cy="791.81" rx="11.34" ry="9.7"/><ellipse class="cls-7" cx="1479.63" cy="886.06" rx="18.34" ry="20.45"/><ellipse class="cls-8" cx="1362.63" cy="422.58" rx="18.34" ry="20.45"/><ellipse class="cls-9" cx="1563.62" cy="941.55" rx="21.34" ry="23.45"/><ellipse class="cls-10" cx="1590.62" cy="458.58" rx="18.34" ry="20.45"/><ellipse class="cls-11" cx="1650.62" cy="1003.05" rx="18.34" ry="20.45"/><ellipse class="cls-12" cx="1385.13" cy="982.05" rx="18.34" ry="20.45"/><ellipse class="cls-13" cx="1311.64" cy="311.58" rx="18.34" ry="20.45"/><ellipse class="cls-14" cx="1349.39" cy="328.08" rx="13.09" ry="11.45"/><ellipse class="cls-15" cx="1360.14" cy="290.58" rx="18.34" ry="20.45"/><ellipse class="cls-16" cx="1432.64" cy="146.08" rx="18.34" ry="20.45"/><ellipse class="cls-17" cx="1602.62" cy="823.06" rx="18.34" ry="20.45"/><ellipse class="cls-18" cx="1025.15" cy="122.59" rx="18.34" ry="20.45"/><ellipse class="cls-19" cx="396.68" cy="677.57" rx="18.34" ry="20.45"/><ellipse class="cls-20" cx="464.18" cy="791.56" rx="18.34" ry="20.45"/><ellipse class="cls-21" cx="548.17" cy="808.06" rx="18.34" ry="20.45"/><ellipse class="cls-22" cx="488.57" cy="212.05" rx="26.59" ry="30.2"/><ellipse class="cls-23" cx="166.08" cy="243.55" rx="26.59" ry="30.2"/><ellipse class="cls-24" cx="21.34" cy="910.27" rx="21.34" ry="21.95"/><ellipse class="cls-25" cx="397.82" cy="979.26" rx="12.34" ry="11.45"/><ellipse class="cls-26" cx="335.58" cy="449.04" rx="26.59" ry="30.2"/><ellipse class="cls-27" cx="1154.53" cy="782.02" rx="26.59" ry="30.2"/><ellipse class="cls-28" cx="1085.54" cy="807.52" rx="26.59" ry="30.2"/><ellipse class="cls-29" cx="79.09" cy="119.81" rx="17.59" ry="17.45"/><ellipse class="cls-30" cx="685.06" cy="73.31" rx="17.59" ry="17.45"/><ellipse class="cls-31" cx="107.59" cy="203.8" rx="17.59" ry="17.45"/><ellipse class="cls-32" cx="282.45" cy="818.8" rx="17.59" ry="21"/><ellipse class="cls-33" cx="582.44" cy="910.3" rx="17.59" ry="17.45"/><ellipse class="cls-34" cx="641.56" cy="896.77" rx="17.59" ry="17.45"/><ellipse class="cls-35" cx="1207.03" cy="655.28" rx="20.59" ry="24.95"/><ellipse class="cls-36" cx="759.35" cy="283.58" rx="173.93" ry="167.13"/><circle class="cls-37" cx="359.95" cy="304.39" r="60"/><circle class="cls-38" cx="359.95" cy="304.49" r="72.5"/><ellipse class="cls-39" cx="457.95" cy="941.99" rx="48.5" ry="44"/><circle class="cls-40" cx="359.95" cy="307.39" r="50"/><path class="cls-41" d="M678.37,145.63a50,50,0,0,1-91.11-35.54,50,50,0,1,0,91.11,35.54Z" transform="translate(-162.11 -38.44)"/><ellipse class="cls-42" cx="424.62" cy="308.05" rx="25.33" ry="27.33"/><ellipse class="cls-43" cx="426.29" cy="305.39" rx="31.67" ry="31.33"/><ellipse class="cls-44" cx="381.37" cy="302.29" rx="8.79" ry="17.64"/><ellipse class="cls-45" cx="525.56" cy="324.77" rx="6.13" ry="11.97" transform="translate(-226.23 102.06) rotate(-14.36)"/><ellipse class="cls-46" cx="594.56" cy="338.77" rx="6.13" ry="11.97" transform="translate(-227.55 119.61) rotate(-14.36)"/><ellipse class="cls-47" cx="491.23" cy="355.86" rx="11.97" ry="6.13" transform="translate(-161.8 673.71) rotate(-71.89)"/><ellipse class="cls-48" cx="569.23" cy="343.86" rx="11.97" ry="6.13" transform="translate(-96.64 739.58) rotate(-71.89)"/><ellipse class="cls-49" cx="1353.86" cy="905.4" rx="13.72" ry="10.28" transform="translate(-431.93 994.79) rotate(-38.27)"/><path class="cls-50" d="M1347.77,910.51l-.06-.07c-1.48-1.88-4.22-9.64-1.65-11.67l294.46-224.9c2.58-2,5.87-2.15,7.35-.26l.06.06c1.48,1.89.6,5.06-2,7.09L1358.73,914.83C1356.16,916.86,1349.25,912.39,1347.77,910.51Z" transform="translate(-162.11 -38.44)"/><ellipse class="cls-51" cx="1526.9" cy="455.93" rx="9.21" ry="12.03" transform="translate(-116.32 1005.36) rotate(-38.27)"/><path class="cls-52" d="M1522.88,459.45l-.06-.08c-1.74-2.21-6-10.47-4.26-11.83L1718,298.89c1.73-1.36,4.54-.68,6.28,1.52l.06.08c1.74,2.21,1.75,5.1,0,6.46l-191,159.39C1531.67,467.7,1524.62,461.65,1522.88,459.45Z" transform="translate(-162.11 -38.44)"/><ellipse class="cls-53" cx="897.57" cy="194.29" rx="9.1" ry="11.91" transform="translate(-89.53 559.3) rotate(-38.27)"/><path class="cls-54" d="M893.6,197.77l-.06-.08c-1.72-2.18-5.93-10.35-4.22-11.7L1086.38,39.13c1.71-1.35,4.48-.67,6.21,1.51l.06.08c1.72,2.18,1.73,5,0,6.39L904,204.6C902.29,206,895.32,200,893.6,197.77Z" transform="translate(-162.11 -38.44)"/><ellipse class="cls-55" cx="545.17" cy="834.17" rx="5.04" ry="6.55" transform="translate(-561.63 478.55) rotate(-38.27)"/><path class="cls-56" d="M543,836.1l0,0c-.95-1.2-3.25-5.7-2.31-6.45l109.25-81.45a2.52,2.52,0,0,1,3.42.82l0,0a2.53,2.53,0,0,1,0,3.52L548.7,839.84C547.75,840.59,543.91,837.3,543,836.1Z" transform="translate(-162.11 -38.44)"/><ellipse class="cls-57" cx="545.46" cy="834.22" rx="5.62" ry="10.95" transform="translate(-561.6 478.74) rotate(-38.27)"/><path class="cls-58" d="M543.06,836.44l-.06-.08c-1.58-2-5.87-9.19-4.82-10l123-89.15c1-.83,3.19.12,4.77,2.13l.06.07c1.58,2,2,4.31,1,5.14L551.69,843.45C550.63,844.28,544.64,838.44,543.06,836.44Z" transform="translate(-162.11 -38.44)"/><ellipse class="cls-59" cx="1768.29" cy="744.08" rx="3.7" ry="7.25" transform="translate(-242.92 1216.82) rotate(-38.27)"/><path class="cls-60" d="M1766.71,745.54l0,0c-1-1.33-3.88-6.09-3.19-6.63l81-58.68c.69-.55,2.1.08,3.15,1.41l0,0c1,1.32,1.33,2.84.64,3.39l-75.92,65.15C1771.72,750.73,1767.76,746.86,1766.71,745.54Z" transform="translate(-162.11 -38.44)"/><ellipse class="cls-61" cx="636.03" cy="971.24" rx="6.32" ry="8.89" transform="translate(-412.87 183.51) rotate(-16.58)"/><ellipse class="cls-62" cx="609.03" cy="996.24" rx="7.72" ry="5.52" transform="matrix(0.18, -0.98, 0.98, 0.18, -643.79, 1374.62)"/><ellipse class="cls-63" cx="607.78" cy="974.99" rx="4.61" ry="3.81" transform="translate(-692.57 780.37) rotate(-50.25)"/></g></g></svg>