<svg id="Layer_1" data-name="Layer 1" xmlns="http://www.w3.org/2000/svg" xmlns:xlink="http://www.w3.org/1999/xlink" viewBox="0 0 879.27 578.11"><defs><style>.cls-1,.cls-10,.cls-11,.cls-12,.cls-13,.cls-14,.cls-15,.cls-16,.cls-17,.cls-18,.cls-19,.cls-2,.cls-20,.cls-21,.cls-22,.cls-23,.cls-24,.cls-25,.cls-26,.cls-3,.cls-4,.cls-5,.cls-6,.cls-7,.cls-8,.cls-9{fill:none;stroke-miterlimit:10;}.cls-1{stroke:url(#linear-gradient);}.cls-2{stroke:url(#linear-gradient-2);}.cls-3{stroke:url(#linear-gradient-3);}.cls-4{stroke:url(#linear-gradient-4);}.cls-5{stroke:url(#linear-gradient-5);}.cls-6{stroke:url(#linear-gradient-6);}.cls-7{stroke:url(#linear-gradient-7);}.cls-8{stroke:url(#linear-gradient-8);}.cls-9{stroke:url(#linear-gradient-9);}.cls-10{stroke:url(#linear-gradient-10);}.cls-11{stroke:url(#linear-gradient-11);}.cls-12{stroke:url(#linear-gradient-12);}.cls-13{stroke:url(#linear-gradient-13);}.cls-14{stroke:url(#linear-gradient-14);}.cls-15{stroke:url(#linear-gradient-15);}.cls-16{stroke:url(#linear-gradient-16);}.cls-17{stroke:url(#linear-gradient-17);}.cls-18{stroke:url(#linear-gradient-18);}.cls-19{stroke:url(#linear-gradient-19);}.cls-20{stroke:url(#linear-gradient-20);}.cls-21{stroke:url(#linear-gradient-21);}.cls-22{stroke:url(#linear-gradient-22);}.cls-23{stroke:url(#linear-gradient-23);}.cls-24{stroke:url(#linear-gradient-24);}.cls-25{stroke:url(#linear-gradient-25);}.cls-26{stroke:url(#linear-gradient-26);}</style><linearGradient id="linear-gradient" x1="716.68" y1="721.54" x2="1501.96" y2="268.16" gradientTransform="matrix(0.03, -0.18, 0.18, 0.07, 1003.03, 693.83)" gradientUnits="userSpaceOnUse"><stop offset="0" stop-color="#00d443"/><stop offset="0.07" stop-color="#00d44c"/><stop offset="0.18" stop-color="#00d266"/><stop offset="0.32" stop-color="#00d08f"/><stop offset="0.48" stop-color="#00cec8"/><stop offset="0.57" stop-color="#00cce9"/><stop offset="0.87" stop-color="#aa007b"/><stop offset="0.99" stop-color="#94000c"/></linearGradient><linearGradient id="linear-gradient-2" x1="716.68" y1="721.54" x2="1501.96" y2="268.16" gradientTransform="matrix(0.04, -0.19, 0.19, 0.08, 983.94, 697.03)" xlink:href="#linear-gradient"/><linearGradient id="linear-gradient-3" x1="716.68" y1="721.54" x2="1501.96" y2="268.16" gradientTransform="matrix(0.06, -0.2, 0.2, 0.1, 963.27, 699.37)" xlink:href="#linear-gradient"/><linearGradient id="linear-gradient-4" x1="716.68" y1="721.54" x2="1501.96" y2="268.16" gradientTransform="matrix(0.07, -0.21, 0.21, 0.12, 940.94, 700.7)" xlink:href="#linear-gradient"/><linearGradient id="linear-gradient-5" x1="716.68" y1="721.54" x2="1501.96" y2="268.16" gradientTransform="matrix(0.09, -0.22, 0.22, 0.13, 916.88, 700.87)" xlink:href="#linear-gradient"/><linearGradient id="linear-gradient-6" x1="716.68" y1="721.54" x2="1501.96" y2="268.16" gradientTransform="matrix(0.11, -0.23, 0.23, 0.15, 891.04, 699.71)" xlink:href="#linear-gradient"/><linearGradient id="linear-gradient-7" x1="716.68" y1="721.54" x2="1501.96" y2="268.16" gradientTransform="matrix(0.13, -0.23, 0.24, 0.18, 863.36, 697.03)" xlink:href="#linear-gradient"/><linearGradient id="linear-gradient-8" x1="716.68" y1="721.54" x2="1501.96" y2="268.16" gradientTransform="matrix(0.15, -0.24, 0.24, 0.2, 833.79, 692.66)" xlink:href="#linear-gradient"/><linearGradient id="linear-gradient-9" x1="716.68" y1="721.54" x2="1501.96" y2="268.16" gradientTransform="matrix(0.18, -0.25, 0.25, 0.23, 802.28, 686.36)" xlink:href="#linear-gradient"/><linearGradient id="linear-gradient-10" x1="716.68" y1="721.54" x2="1501.96" y2="268.16" gradientTransform="matrix(0.2, -0.25, 0.26, 0.26, 768.8, 677.91)" xlink:href="#linear-gradient"/><linearGradient id="linear-gradient-11" x1="716.68" y1="721.54" x2="1501.96" y2="268.16" gradientTransform="matrix(0.23, -0.26, 0.26, 0.29, 733.32, 667.08)" xlink:href="#linear-gradient"/><linearGradient id="linear-gradient-12" x1="716.68" y1="721.54" x2="1501.96" y2="268.16" gradientTransform="matrix(0.26, -0.26, 0.26, 0.32, 695.84, 653.59)" xlink:href="#linear-gradient"/><linearGradient id="linear-gradient-13" x1="716.68" y1="721.54" x2="1501.96" y2="268.16" gradientTransform="matrix(0.3, -0.26, 0.26, 0.35, 656.35, 637.17)" xlink:href="#linear-gradient"/><linearGradient id="linear-gradient-14" x1="716.68" y1="721.54" x2="1501.96" y2="268.16" gradientTransform="matrix(0.34, -0.26, 0.26, 0.39, 614.87, 617.53)" xlink:href="#linear-gradient"/><linearGradient id="linear-gradient-15" x1="716.68" y1="721.54" x2="1501.96" y2="268.16" gradientTransform="matrix(0.37, -0.26, 0.26, 0.43, 571.43, 594.36)" xlink:href="#linear-gradient"/><linearGradient id="linear-gradient-16" x1="716.68" y1="721.54" x2="1501.96" y2="268.16" gradientTransform="matrix(0.42, -0.25, 0.26, 0.47, 526.09, 567.32)" xlink:href="#linear-gradient"/><linearGradient id="linear-gradient-17" x1="716.68" y1="721.54" x2="1501.96" y2="268.16" gradientTransform="matrix(0.46, -0.25, 0.25, 0.51, 478.93, 536.08)" xlink:href="#linear-gradient"/><linearGradient id="linear-gradient-18" x1="716.68" y1="721.54" x2="1501.96" y2="268.16" gradientTransform="matrix(0.51, -0.24, 0.24, 0.56, 430.04, 500.26)" xlink:href="#linear-gradient"/><linearGradient id="linear-gradient-19" x1="716.68" y1="721.54" x2="1501.96" y2="268.16" gradientTransform="matrix(0.56, -0.22, 0.23, 0.61, 379.57, 459.48)" xlink:href="#linear-gradient"/><linearGradient id="linear-gradient-20" x1="716.68" y1="721.54" x2="1501.96" y2="268.16" gradientTransform="matrix(0.61, -0.21, 0.21, 0.66, 327.66, 413.35)" xlink:href="#linear-gradient"/><linearGradient id="linear-gradient-21" x1="716.68" y1="721.54" x2="1501.96" y2="268.16" gradientTransform="matrix(0.67, -0.18, 0.19, 0.71, 274.52, 361.45)" xlink:href="#linear-gradient"/><linearGradient id="linear-gradient-22" x1="716.68" y1="721.54" x2="1501.96" y2="268.16" gradientTransform="matrix(0.73, -0.16, 0.16, 0.76, 220.38, 303.35)" xlink:href="#linear-gradient"/><linearGradient id="linear-gradient-23" x1="716.68" y1="721.54" x2="1501.96" y2="268.16" gradientTransform="matrix(0.79, -0.13, 0.13, 0.82, 165.51, 238.62)" xlink:href="#linear-gradient"/><linearGradient id="linear-gradient-24" x1="716.68" y1="721.54" x2="1501.96" y2="268.16" gradientTransform="matrix(0.86, -0.09, 0.09, 0.88, 110.24, 166.8)" xlink:href="#linear-gradient"/><linearGradient id="linear-gradient-25" x1="716.68" y1="721.54" x2="1501.96" y2="268.16" gradientTransform="matrix(0.93, -0.05, 0.05, 0.94, 54.93, 87.41)" xlink:href="#linear-gradient"/><linearGradient id="linear-gradient-26" x1="716.68" y1="721.54" x2="1501.96" y2="268.16" gradientTransform="matrix(1, 0, 0, 1, 0, 0)" xlink:href="#linear-gradient"/></defs><path class="cls-1" d="M1105.38,523.83c-5.8-2.52-11.39-7.56-13.13-13.73s1.8-12.85,7.7-12.43c7.67.56,13.72,11.23,21.41,12,4.53.45,8.13-3.05,9-7.46s-.59-9.45-2.88-13.94-5.39-8.57-8.23-12.78c-3.66-5.42-7-11.24-8.38-17.34s-.71-12.58,3-16.51,10.72-4.52,15.76-.45c5.69,4.6,6.86,12.57,7.94,19.47s3.71,15.23,10.14,18.11c5.51,2.48,10.76-.43,16.15-1.15,10.17-1.35,22.37,6.47,27,17.26s.93,23.14-8.06,27.27c-5,2.3-11.26,2.27-15.75,5.39-4.08,2.85-6.16,8.07-6.37,13.58s1.29,11.31,3.4,16.85c3.73,9.76,9.42,19.11,11.88,29.07s.57,21.36-7.72,24.62c-7.33,2.87-18-2.74-21.46-11.31-2.57-6.33-1.49-13.07-4-19.42-2.81-7.19-10-12.64-17-14.25a26.75,26.75,0,0,0-19.53,3.4c-5.61,3.28-10.16,8-14.64,12.72-2,2.11-4,4.26-6.69,5.51a9.87,9.87,0,0,1-9-.15,13.09,13.09,0,0,1-6-8.63,18.89,18.89,0,0,1,.79-9.75,27.9,27.9,0,0,1,22.47-19.17c5.4-.81,11.16-.2,16.72-.42s11.2-1.43,14.77-5.27c3-3.27,5.18-11.45.07-15.66-2-1.66-4.73-2.07-7-2.44C1113.48,526.14,1109.46,525.61,1105.38,523.83Z" transform="translate(-694.02 -236.9)"/><path class="cls-2" d="M1103.41,522.13c-6.08-3-11.8-8.67-13.33-15.32s2.66-13.56,9-12.78c8.2,1,14.1,12.69,22.31,13.94,4.84.73,8.9-2.79,10.07-7.42s-.1-10.08-2.31-15-5.31-9.41-8.13-14c-3.62-6-6.83-12.33-8-18.89s-.06-13.41,4.13-17.37,11.76-4.21,17,.4c5.85,5.2,6.66,13.73,7.43,21.13s3.12,16.37,9.87,19.8c5.78,2.94,11.58.14,17.41-.32,11-.87,23.66,8.11,28,19.83s-.31,24.64-10.19,28.53c-5.51,2.16-12.22,1.78-17.22,4.85-4.55,2.79-7.07,8.23-7.6,14.07s.74,12.08,2.7,18.08c3.46,10.58,9,20.83,11.12,31.55s-.6,22.73-9.68,25.72c-8,2.65-19.13-3.9-22.4-13.21-2.41-6.86-.87-14-3.18-20.85-2.62-7.8-10-14-17.51-16.09a29.09,29.09,0,0,0-21.17,2.53c-6.21,3.17-11.36,8-16.43,12.7-2.27,2.13-4.59,4.29-7.5,5.48a10.73,10.73,0,0,1-9.68-.66,13.91,13.91,0,0,1-5.93-9.5,19.93,19.93,0,0,1,1.39-10.32,30,30,0,0,1,25.21-19.11c5.85-.57,12,.41,18,.48s12.1-.89,16.16-4.77c3.45-3.3,6.2-11.88.94-16.64-2.07-1.88-5-2.46-7.37-3C1112,525,1107.69,524.24,1103.41,522.13Z" transform="translate(-694.02 -236.9)"/><path class="cls-3" d="M1101.39,520.2c-6.36-3.53-12.18-9.86-13.44-17s3.61-14.26,10.35-13.08c8.75,1.54,14.43,14.27,23.17,16.05,5.16,1,9.72-2.46,11.23-7.32s.46-10.71-1.63-16-5.18-10.29-7.94-15.37c-3.55-6.54-6.64-13.47-7.54-20.52s.69-14.24,5.42-18.21,12.86-3.82,18.17,1.36c6,5.86,6.38,15,6.79,22.86s2.43,17.57,9.49,21.59c6,3.44,12.42.8,18.71.63,11.85-.32,24.95,9.93,28.91,22.62s-1.71,26.16-12.54,29.74c-6,2-13.23,1.21-18.76,4.2-5,2.71-8,8.34-9,14.52s.12,12.88,1.89,19.36c3.11,11.44,8.53,22.63,10.16,34.13S1173,623.84,1163,626.51c-8.77,2.37-20.32-5.21-23.31-15.28-2.2-7.42-.15-14.88-2.25-22.32-2.37-8.43-10-15.42-17.89-18.07s-16-1.51-22.87,1.51-12.65,7.8-18.36,12.57c-2.56,2.14-5.17,4.31-8.36,5.41a11.69,11.69,0,0,1-10.37-1.25,14.78,14.78,0,0,1-5.83-10.42,20.92,20.92,0,0,1,2.08-10.88A32.23,32.23,0,0,1,1084,548.87c6.31-.27,12.86,1.11,19.28,1.52s13-.27,17.62-4.17c3.9-3.32,7.33-12.28,2-17.62-2.13-2.11-5.19-2.89-7.76-3.58C1110.44,523.77,1105.87,522.69,1101.39,520.2Z" transform="translate(-694.02 -236.9)"/><path class="cls-4" d="M1099.34,518.05c-6.64-4.11-12.53-11.16-13.48-18.83s4.68-14.94,11.85-13.31c9.3,2.12,14.69,16,24,18.34,5.48,1.4,10.57-2.08,12.47-7.16s1.1-11.35-.86-17.12-5-11.22-7.65-16.77c-3.45-7.14-6.38-14.68-7-22.21s1.55-15.1,6.85-19.05,14-3.34,19.43,2.46c6.11,6.55,6,16.25,6,24.66s1.62,18.81,9,23.47c6.29,4,13.3,1.53,20.06,1.7,12.74.33,26.23,11.95,29.77,25.65s-3.31,27.7-15.14,30.89c-6.6,1.79-14.27.56-20.38,3.42-5.57,2.6-9.12,8.42-10.44,14.93s-.59,13.68.94,20.67c2.7,12.33,7.89,24.52,9,36.83s-3.42,25.51-14.23,27.8c-9.54,2-21.52-6.67-24.16-17.53-1.95-8,.67-15.82-1.16-23.84-2.07-9.09-9.83-16.93-18.19-20.2s-17.12-2.5-24.65.33-14,7.59-20.42,12.34c-2.87,2.13-5.79,4.29-9.28,5.28a12.64,12.64,0,0,1-11.06-1.9,15.7,15.7,0,0,1-5.68-11.4,22.1,22.1,0,0,1,2.85-11.44,34.68,34.68,0,0,1,31.28-18.52c6.79.06,13.74,1.89,20.61,2.68s14,.44,19.16-3.45c4.37-3.3,8.56-12.63,3.09-18.61-2.16-2.36-5.41-3.36-8.12-4.23C1108.85,522.34,1104,520.94,1099.34,518.05Z" transform="translate(-694.02 -236.9)"/><path class="cls-5" d="M1097.25,515.65c-6.89-4.74-12.83-12.56-13.42-20.76s5.87-15.61,13.48-13.48c9.87,2.77,14.88,17.77,24.72,20.82,5.81,1.79,11.47-1.62,13.79-6.91s1.82-12,0-18.24-4.72-12.19-7.28-18.23c-3.3-7.78-6-16-6.21-24s2.51-15.95,8.42-19.86,15.26-2.77,20.74,3.7c6.19,7.3,5.54,17.59,5,26.53s.69,20.07,8.32,25.43c6.52,4.58,14.19,2.37,21.44,2.93,13.66,1.05,27.49,14.15,30.53,28.9s-5.12,29.24-18,32c-7.19,1.53-15.36-.21-22.08,2.49-6.12,2.46-10.26,8.44-12,15.28s-1.41,14.51-.16,22c2.2,13.24,7.09,26.48,7.58,39.62s-5.11,26.92-16.84,28.75c-10.36,1.62-22.74-8.29-25-20-1.64-8.62,1.61-16.78.1-25.4-1.71-9.77-9.61-18.53-18.4-22.47s-18.25-3.6-26.48-1-15.48,7.28-22.63,12c-3.2,2.1-6.46,4.24-10.26,5.09a13.7,13.7,0,0,1-11.77-2.63,16.54,16.54,0,0,1-5.45-12.42,23.34,23.34,0,0,1,3.69-12,37.39,37.39,0,0,1,34.64-17.93c7.29.44,14.65,2.77,22,4s15,1.25,20.77-2.59c4.87-3.27,9.9-13,4.36-19.6-2.19-2.63-5.62-3.87-8.48-4.95C1107.22,520.73,1102.1,519,1097.25,515.65Z" transform="translate(-694.02 -236.9)"/><path class="cls-6" d="M1095.14,513c-7.13-5.42-13.06-14.06-13.23-22.8s7.18-16.26,15.23-13.57c10.44,3.49,15,19.71,25.37,23.49,6.13,2.23,12.4-1.08,15.2-6.57s2.62-12.65,1.07-19.37-4.37-13.22-6.79-19.78c-3.1-8.45-5.57-17.29-5.31-25.83s3.59-16.81,10.16-20.63,16.53-2.09,22.05,5.08c6.24,8.1,5,19,3.94,28.47s-.39,21.36,7.5,27.48c6.75,5.23,15.11,3.31,22.86,4.31,14.61,1.88,28.72,16.56,31.15,32.4s-7.14,30.78-21.13,33c-7.8,1.22-16.47-1.07-23.84,1.42-6.72,2.27-11.5,8.39-13.8,15.56s-2.33,15.34-1.41,23.38c1.63,14.19,6.13,28.54,5.91,42.52s-7,28.31-19.69,29.6c-11.22,1.14-24-10.06-25.69-22.6-1.27-9.25,2.68-17.73,1.54-27-1.29-10.47-9.27-20.22-18.5-24.89s-19.38-4.85-28.37-2.56-17,6.88-25,11.46c-3.55,2.05-7.17,4.13-11.31,4.83a14.84,14.84,0,0,1-12.49-3.45,17.53,17.53,0,0,1-5.15-13.5,24.66,24.66,0,0,1,4.64-12.54,40.37,40.37,0,0,1,38.2-17.12c7.81.87,15.58,3.76,23.38,5.47s16.08,2.16,22.45-1.61c5.42-3.2,11.36-13.2,5.79-20.57-2.2-2.92-5.82-4.43-8.83-5.74C1105.57,518.93,1100.17,516.78,1095.14,513Z" transform="translate(-694.02 -236.9)"/><path class="cls-7" d="M1093,510c-7.35-6.15-13.24-15.66-12.93-24.95s8.63-16.88,17.12-13.57c11,4.29,15,21.77,25.92,26.37,6.46,2.71,13.38-.46,16.69-6.14s3.53-13.29,2.24-20.52-4-14.28-6.17-21.39c-2.86-9.15-5-18.68-4.26-27.74s4.81-17.65,12.07-21.35,17.88-1.3,23.4,6.63c6.24,8.95,4.26,20.46,2.63,30.47s-1.62,22.66,6.5,29.61c7,5.93,16,4.35,24.31,5.84,15.58,2.82,29.91,19.2,31.63,36.16s-9.4,32.31-24.54,33.85c-8.45.87-17.64-2-25.69.18-7.34,2-12.82,8.28-15.69,15.77s-3.36,16.16-2.83,24.76c.94,15.17,5,30.65,4,45.5s-9.1,29.68-22.81,30.35c-12.11.59-25.16-12-26.31-25.45-.85-9.89,3.87-18.68,3.17-28.57-.79-11.2-8.81-22-18.46-27.47s-20.54-6.23-30.33-4.3-18.67,6.36-27.45,10.78c-3.93,2-7.94,4-12.41,4.51a16.07,16.07,0,0,1-13.22-4.37c-3.76-3.78-5.31-9.59-4.78-14.63a26.09,26.09,0,0,1,5.7-13.06c9.63-12.58,25.71-18.73,42-16.06,8.33,1.36,16.51,4.86,24.8,7.11s17.13,3.19,24.19-.45c6-3.1,12.94-13.4,7.37-21.54-2.2-3.22-6-5-9.16-6.58C1103.89,516.93,1098.21,514.35,1093,510Z" transform="translate(-694.02 -236.9)"/><path class="cls-8" d="M1090.93,506.77c-7.55-6.94-13.33-17.37-12.48-27.23s10.21-17.45,19.15-13.47c11.59,5.17,14.84,24,26.34,29.46,6.79,3.24,14.4.26,18.27-5.59s4.54-13.92,3.57-21.68-3.45-15.39-5.43-23.06c-2.55-9.88-4.33-20.12-3-29.71s6.15-18.49,14.16-22,19.27-.38,24.75,8.35c6.2,9.86,3.42,22,1.11,32.51s-3,24,5.32,31.82c7.13,6.69,17,5.52,25.77,7.56,16.57,3.86,31,22.06,31.93,40.18s-11.91,33.79-28.26,34.6c-9.12.44-18.82-3.17-27.59-1.25-8,1.76-14.23,8.08-17.74,15.88s-4.52,17-4.43,26.15c.16,16.16,3.61,32.84,1.69,48.56s-11.45,31-26.21,31c-13,0-26.33-14.18-26.82-28.5-.35-10.56,5.21-19.64,5-30.17-.23-11.95-8.23-23.87-18.28-30.22s-21.71-7.76-32.33-6.26-20.41,5.71-30.08,9.93c-4.33,1.88-8.75,3.8-13.59,4.09a17.34,17.34,0,0,1-13.94-5.37c-3.83-4.22-5.16-10.49-4.31-15.81s3.6-9.79,6.85-13.56c11-12.82,28.67-18.47,46-14.73,8.86,1.92,17.45,6.09,26.22,8.94s18.22,4.34,26,.87c6.62-3,14.66-13.51,9.14-22.47-2.19-3.55-6.16-5.68-9.47-7.51C1102.2,514.71,1096.25,511.65,1090.93,506.77Z" transform="translate(-694.02 -236.9)"/><path class="cls-9" d="M1088.86,503.19c-7.72-7.79-13.34-19.2-11.87-29.62s12-18,21.32-13.24c12.15,6.14,14.59,26.28,26.63,32.76,7.11,3.82,15.45,1.08,19.93-4.92s5.66-14.54,5.05-22.83-2.83-16.55-4.53-24.81c-2.19-10.64-3.51-21.61-1.56-31.72s7.64-19.3,16.45-22.6,20.71.67,26.1,10.24c6.1,10.83,2.44,23.54-.64,34.61s-4.59,25.32,3.92,34.1c7.28,7.51,17.92,6.81,27.25,9.47,17.58,5,32.09,25.16,32,44.46s-14.69,35.24-32.29,35.18c-9.82,0-20-4.42-29.56-2.86-8.68,1.43-15.73,7.79-19.93,15.89s-5.81,17.78-6.23,27.53c-.74,17.18,2,35.09-.93,51.68s-14,32.32-29.88,31.44c-14-.78-27.48-16.53-27.19-31.77.21-11.23,6.7-20.57,7.08-31.78.43-12.7-7.5-25.81-17.93-33.12s-22.87-9.45-34.35-8.44-22.24,4.93-32.87,8.87c-4.76,1.76-9.61,3.55-14.82,3.59a18.75,18.75,0,0,1-14.67-6.48c-3.87-4.7-5-11.43-3.74-17s4.43-10.21,8.12-14c12.59-13,31.83-18,50.21-13.09,9.41,2.53,18.4,7.44,27.66,11s19.32,5.63,27.87,2.37c7.27-2.78,16.5-13.54,11.07-23.37-2.14-3.88-6.29-6.37-9.74-8.49C1100.51,512.26,1094.3,508.68,1088.86,503.19Z" transform="translate(-694.02 -236.9)"/><path class="cls-10" d="M1086.84,499.28c-7.85-8.71-13.25-21.14-11.08-32.14s13.84-18.42,23.63-12.87c12.71,7.2,14.19,28.73,26.76,36.28,7.41,4.46,16.52,2,21.68-4.11s6.89-15.13,6.7-24-2.11-17.74-3.47-26.61c-1.74-11.43-2.55-23.16.11-33.8s9.3-20.07,18.94-23.08,22.2,1.86,27.45,12.33c5.94,11.84,1.29,25.14-2.63,36.73s-6.36,26.64,2.29,36.44c7.39,8.38,18.85,8.24,28.72,11.58,18.59,6.31,33,28.52,31.89,49s-17.76,36.62-36.66,35.58c-10.54-.58-21.26-5.81-31.58-4.68-9.4,1-17.33,7.4-22.3,15.76s-7.24,18.57-8.24,28.9c-1.75,18.21.21,37.39-3.9,54.85s-16.89,33.56-33.86,31.74c-15-1.6-28.57-19.09-27.41-35.26.86-11.93,8.36-21.48,9.4-33.37,1.18-13.47-6.6-27.84-17.39-36.18s-24-11.32-36.42-10.88-24.15,4-35.78,7.59c-5.21,1.6-10.52,3.24-16.12,3a20.26,20.26,0,0,1-15.39-7.7c-3.89-5.21-4.67-12.42-3-18.31s5.32-10.59,9.51-14.45c14.24-13.12,35.18-17.37,54.64-11.1,10,3.21,19.35,8.92,29.09,13.18s20.43,7,29.79,4.06c8-2.54,18.48-13.46,13.21-24.2-2.09-4.25-6.4-7.12-10-9.57C1098.84,509.56,1092.36,505.41,1086.84,499.28Z" transform="translate(-694.02 -236.9)"/><path class="cls-11" d="M1084.88,495c-7.94-9.68-13-23.19-10.09-34.75s15.9-18.8,26.11-12.36c13.23,8.35,13.62,31.32,26.69,40,7.71,5.14,17.63,3.05,23.51-3.17s8.25-15.69,8.54-25.09-1.26-19-2.22-28.46c-1.24-12.24-1.44-24.75,2-35.9s11.11-20.81,21.63-23.47,23.73,3.21,28.79,14.63c5.71,12.91,0,26.78-4.9,38.87s-8.32,28,.41,38.85c7.47,9.31,19.78,9.79,30.19,13.9,19.61,7.74,33.87,32.13,31.48,53.85s-21.13,37.91-41.36,35.75c-11.29-1.2-22.5-7.35-33.65-6.73-10.15.57-19,6.9-24.83,15.51s-8.82,19.32-10.47,30.24c-2.92,19.25-1.89,39.74-7.28,58.06s-20,34.71-38.14,31.83c-16-2.54-29.61-21.87-27.45-39,1.59-12.62,10.18-22.35,12-34.92,2-14.25-5.51-29.94-16.63-39.41s-25.17-13.36-38.49-13.59-26.17,2.91-38.86,6.07c-5.68,1.42-11.47,2.86-17.47,2.29s-12.34-3.48-16.09-9c-3.89-5.76-4.32-13.46-2.25-19.62s6.31-11,11-14.82c16-13.15,38.76-16.5,59.31-8.76,10.52,4,20.26,10.56,30.49,15.62s21.54,8.63,31.76,6c8.69-2.26,20.6-13.27,15.54-25-2-4.63-6.47-7.92-10.18-10.72C1097.19,506.59,1090.47,501.82,1084.88,495Z" transform="translate(-694.02 -236.9)"/><path class="cls-12" d="M1083,490.36c-8-10.74-12.7-25.37-8.88-37.48s18.13-19.09,28.72-11.69c13.75,9.62,12.87,34,26.41,44,8,5.89,18.76,4.22,25.42-2.06s9.75-16.2,10.59-26.18-.29-20.22-.78-30.36c-.64-13.06-.16-26.37,4.19-38s13.1-21.49,24.54-23.74,25.3,4.74,30.09,17.16c5.41,14-1.54,28.45-7.45,41s-10.51,29.23-1.74,41.29c7.49,10.31,20.69,11.51,31.63,16.45,20.63,9.31,34.57,36,30.78,59s-24.83,39.1-46.43,35.68c-12-1.91-23.75-9.06-35.75-9-10.94,0-20.82,6.26-27.54,15.09s-10.56,20-12.94,31.54c-4.22,20.29-4.27,42.11-11.08,61.27s-23.46,35.77-42.76,31.7c-17-3.59-30.56-24.88-27.27-43,2.42-13.32,12.18-23.18,14.81-36.43,3-15-4.24-32.12-15.65-42.8s-26.27-15.59-40.56-16.57-28.26,1.62-42.07,4.28c-6.18,1.19-12.48,2.4-18.89,1.45s-13-4.38-16.77-10.5c-3.85-6.32-3.88-14.53-1.31-21s7.39-11.3,12.67-15.14c18-13.07,42.55-15.36,64.18-6,11.07,4.79,21.16,12.34,31.85,18.29s22.65,10.37,33.78,8.12c9.46-1.92,22.86-12.95,18.09-25.68-1.89-5-6.5-8.77-10.33-11.95C1095.59,503.36,1088.65,497.92,1083,490.36Z" transform="translate(-694.02 -236.9)"/><path class="cls-13" d="M1081.29,485.32c-8-11.85-12.2-27.65-7.42-40.32s20.54-19.27,31.5-10.81c14.22,11,11.9,36.87,25.88,48.24,8.25,6.71,19.9,5.53,27.41-.76S1170,465,1171.51,454.44s.83-21.49.86-32.3c.05-13.91,1.32-28,6.64-40.16s15.28-22.1,27.69-23.85,26.91,6.44,31.35,19.9c5,15.2-3.25,30.14-10.31,43.16s-12.93,30.47-4.19,43.77c7.46,11.38,21.57,13.38,33,19.24,21.62,11,35.09,40.2,29.73,64.35s-28.86,40.16-51.86,35.32c-12.83-2.69-25-11-37.88-11.57-11.75-.57-22.71,5.5-30.42,14.5s-12.47,20.7-15.68,32.79c-5.67,21.32-7,44.5-15.35,64.48s-27.2,36.68-47.69,31.29c-18.09-4.76-31.42-28.14-26.87-47.15,3.35-14,14.39-24,18-37.88,4-15.79-2.74-34.36-14.39-46.34s-27.33-18-42.62-19.86-30.44.15-45.41,2.21c-6.71.92-13.54,1.85-20.37.49s-13.77-5.38-17.42-12.09c-3.77-6.94-3.34-15.66-.23-22.34s8.58-11.59,14.46-15.38c20-12.88,46.56-14,69.25-2.8,11.62,5.72,22,14.3,33.18,21.21s23.73,12.28,35.81,10.51c10.27-1.51,25.28-12.49,20.87-26.27-1.74-5.45-6.49-9.69-10.42-13.28C1094.05,499.83,1086.9,493.66,1081.29,485.32Z" transform="translate(-694.02 -236.9)"/><path class="cls-14" d="M1079.72,479.87c-7.89-13-11.55-30.06-5.71-43.24s23.15-19.33,34.44-9.73c14.65,12.45,10.7,39.83,25.07,52.68,8.48,7.59,21.06,7,29.48.72s13.15-17.09,15.33-28.21,2.09-22.79,2.74-34.27c.84-14.78,3-29.7,9.39-42.29s17.65-22.63,31.08-23.8,28.53,8.34,32.54,22.89c4.53,16.43-5.19,31.83-13.5,45.28s-15.6,31.65-7,46.26c7.38,12.5,22.41,15.42,34.4,22.28,22.6,12.94,35.42,44.66,28.3,70s-33.25,41-57.67,34.64c-13.63-3.58-26.22-13-40-14.41-12.58-1.26-24.69,4.58-33.48,13.71s-14.55,21.3-18.68,34c-7.28,22.33-10,46.88-20.1,67.64s-31.28,37.46-53,30.59c-19.16-6.07-32.15-31.64-26.2-51.58,4.38-14.71,16.8-24.65,21.41-39.25,5.23-16.55-1-36.65-12.84-50s-28.34-20.67-44.66-23.48-32.69-1.53-48.88-.18c-7.26.61-14.65,1.21-21.9-.61s-14.48-6.48-18-13.81c-3.66-7.58-2.7-16.82,1-23.75s9.86-11.84,16.39-15.53c22.22-12.57,50.78-12.24,74.52.88,12.15,6.72,22.85,16.41,34.43,24.38s24.8,14.36,37.86,13.15c11.11-1,27.85-11.85,23.89-26.74-1.56-5.88-6.42-10.65-10.44-14.68C1092.6,496,1085.27,489,1079.72,479.87Z" transform="translate(-694.02 -236.9)"/><path class="cls-15" d="M1078.33,474c-7.73-14.28-10.71-32.57-3.69-46.26s25.94-19.24,37.52-8.42c15,14.05,9.26,42.91,24,57.37,8.68,8.54,22.23,8.6,31.62,2.4s15.08-17.42,18-29.11,3.54-24.1,4.88-36.25c1.73-15.66,4.88-31.39,12.46-44.41s20.22-23.06,34.71-23.55,30.16,10.44,33.65,26.12c3.94,17.71-7.36,33.54-17,47.36S1235.91,452,1244.35,468c7.22,13.69,23.2,17.62,35.69,25.58,23.53,15,35.52,49.41,26.45,76s-38,41.77-63.88,33.59c-14.43-4.56-27.42-15.3-42.17-17.53-13.44-2-26.77,3.49-36.72,12.7s-16.83,21.81-22,35c-9.08,23.32-13.34,49.26-25.4,70.74s-35.69,38.06-58.6,29.55c-20.24-7.51-32.75-35.4-25.24-56.26,5.54-15.37,19.43-25.24,25.2-40.5,6.55-17.29,1-39-11-53.86s-29.26-23.54-46.63-27.43-35-3.45-52.48-2.92c-7.83.24-15.8.47-23.48-1.86s-15.19-7.7-18.58-15.68c-3.51-8.26-2-18,2.42-25.18s11.26-12,18.48-15.58c24.57-12.12,55.21-10.17,80,5.08,12.68,7.82,23.62,18.71,35.61,27.82s25.81,16.64,39.91,16.08c12-.47,30.57-11,27.16-27.08-1.35-6.34-6.3-11.67-10.39-16.18C1091.26,491.84,1083.78,484.05,1078.33,474Z" transform="translate(-694.02 -236.9)"/><path class="cls-16" d="M1077.17,467.67c-7.5-15.61-9.66-35.2-1.36-49.35s28.94-19,40.77-6.85c15.35,15.75,7.52,46.1,22.5,62.28,8.83,9.54,23.38,10.37,33.81,4.31s17.18-17.67,21-29.93,5.15-25.4,7.27-38.24c2.74-16.53,7-33.07,15.88-46.49s23-23.36,38.6-23.08,31.8,12.78,34.66,29.62c3.24,19-9.79,35.22-21,49.36s-21.74,33.77-13.58,51.25c7,14.94,23.92,20,36.88,29.16,24.43,17.25,35.36,54.47,24.13,82.17s-43.17,42.26-70.49,32.13c-15.24-5.65-28.58-17.78-44.29-21-14.31-2.92-28.94,2.21-40.14,11.44s-19.3,22.24-25.57,36c-11.06,24.27-17.09,51.59-31.25,73.74s-40.47,38.44-64.59,28.13c-21.31-9.11-33.17-39.43-23.93-61.17,6.81-16,22.28-25.74,29.34-41.63,8-18,3.24-41.37-8.76-57.83S1007,555.09,988.59,550s-37.41-5.61-56.19-6c-8.42-.18-17-.38-25.11-3.29s-15.88-9-19.07-17.69c-3.3-9-1.09-19.25,4-26.61S905,484.23,913,480.85c27.06-11.51,59.86-7.73,85.58,9.86,13.17,9,24.31,21.19,36.66,31.53s26.79,19.12,42,19.31c12.91.16,33.45-10,30.69-27.26-1.09-6.81-6.1-12.75-10.24-17.77C1090.05,487.35,1082.46,478.66,1077.17,467.67Z" transform="translate(-694.02 -236.9)"/><path class="cls-17" d="M1076.29,460.89c-7.18-17-8.4-37.94,1.31-52.5s32.15-18.58,44.16-5c15.6,17.6,5.49,49.4,20.66,67.42,8.95,10.64,24.52,12.32,36.06,6.46s19.44-17.81,24.25-30.62,7-26.7,10-40.22c3.87-17.41,9.38-34.74,19.66-48.5s26-23.54,42.75-22.38,33.43,15.35,35.55,33.41c2.41,20.4-12.49,36.86-25.28,51.27s-25.25,34.66-17.46,53.68c6.65,16.27,24.55,22.6,37.95,33,25.26,19.68,34.91,59.84,21.28,88.64s-48.72,42.48-77.49,30.2c-16-6.84-29.69-20.47-46.38-24.74-15.21-3.89-31.21.74-43.75,9.92s-22,22.56-29.48,36.83c-13.24,25.17-21.26,53.85-37.71,76.6s-45.62,38.59-70.94,26.29C999,739.81,988,706.93,999.15,684.35c8.21-16.65,25.37-26.1,33.85-42.59,9.6-18.69,5.81-43.77-6.15-61.93s-30.82-30-50.32-36.42-39.86-8-60-9.52c-9-.66-18.22-1.35-26.77-4.89s-16.55-10.47-19.48-19.86c-3-9.71-.09-20.51,5.81-28.05s14.39-12.19,23.12-15.34c29.71-10.72,64.71-4.88,91.34,15.23,13.64,10.31,24.91,23.87,37.6,35.55s27.68,21.8,44,22.84c13.85.9,36.48-8.79,34.49-27.25-.79-7.29-5.84-13.88-10-19.44C1089,482.51,1081.34,472.85,1076.29,460.89Z" transform="translate(-694.02 -236.9)"/><path class="cls-18" d="M1075.72,453.64c-6.76-18.46-6.89-40.77,4.36-55.71s35.56-17.94,47.71-2.86c15.75,19.56,3.1,52.78,18.38,72.77,9,11.8,25.64,14.45,38.36,8.87s21.88-17.84,27.76-31.18,9-28,13-42.18c5.14-18.28,12-36.38,23.85-50.43s29.27-23.56,47.15-21.39,35,18.16,36.3,37.47c1.44,21.8-15.49,38.47-30,53.06s-29.06,35.42-21.78,56.06c6.24,17.65,25.1,25.37,38.9,37.21,26,22.31,34.11,65.51,17.87,95.35s-54.72,42.42-84.91,27.78c-16.85-8.17-30.73-23.41-48.42-28.88-16.11-5-33.55-1-47.53,8.11s-24.86,22.74-33.73,37.49c-15.64,26-25.86,56-44.8,79.28s-51.16,38.45-77.66,24c-23.4-12.78-33.4-48.32-20.16-71.69,9.76-17.23,28.71-26.32,38.74-43.36,11.37-19.32,8.7-46.18-3.11-66.13s-31.41-33.57-52-41.5S921.61,525,900.06,522.3c-9.65-1.21-19.48-2.45-28.47-6.69s-17.18-12-19.8-22.18c-2.72-10.49,1.05-21.8,7.82-29.47s16.13-12.16,25.68-15c32.51-9.73,69.77-1.58,97.23,21.27,14.06,11.71,25.41,26.74,38.37,39.85s28.51,24.7,45.92,26.72c14.82,1.72,39.67-7.31,38.57-27-.44-7.8-5.49-15.08-9.64-21.22C1088.16,477.32,1080.47,466.63,1075.72,453.64Z" transform="translate(-694.02 -236.9)"/><path class="cls-19" d="M1075.51,445.9c-6.21-20-5.1-43.7,7.83-58.94s39.19-17.08,51.38-.39c15.81,21.66.36,56.25,15.64,78.34,9,13,26.72,16.78,40.7,11.56s24.49-17.73,31.56-31.58,11.22-29.22,16.3-44.08c6.54-19.14,15-38,28.44-52.25s32.76-23.4,51.84-20.1,36.6,21.24,36.88,41.82c.31,23.25-18.81,40-35.24,54.7s-33.2,36-26.54,58.34c5.7,19.11,25.52,28.36,39.68,41.7,26.68,25.16,32.94,71.5,13.81,102.3s-61.14,42-92.74,24.78c-17.63-9.62-31.68-26.58-50.36-33.37-17-6.19-36-2.88-51.5,6s-28,22.78-38.32,37.95c-18.26,26.75-30.92,58.08-52.57,81.73s-57.1,38-84.74,21.15c-24.41-14.89-33.14-53.2-17.61-77.29,11.44-17.76,32.31-26.36,44-43.91,13.29-19.89,11.94-48.58.37-70.43s-31.83-37.4-53.48-47S906,513.12,883,509.06c-10.3-1.82-20.79-3.68-30.2-8.69s-17.76-13.75-20-24.66c-2.33-11.29,2.36-23.11,10.06-30.88s18-12,28.42-14.52c35.45-8.53,75,2.2,103.2,28,14.45,13.22,25.78,29.82,39,44.47s29.21,27.83,47.8,30.95c15.82,2.65,43-5.56,42.93-26.57,0-8.3-5-16.32-9.15-23.08C1087.54,471.75,1079.88,460,1075.51,445.9Z" transform="translate(-694.02 -236.9)"/><path class="cls-20" d="M1075.73,437.67c-5.55-21.58-3-46.71,11.71-62.18s43-16,55.2,2.45c15.77,23.89-2.77,59.78,12.39,84.09,9,14.35,27.75,19.32,43,14.55s27.3-17.47,35.67-31.8,13.69-30.41,20-45.92c8.1-20,18.21-39.52,33.48-53.92s36.5-23,56.8-18.47,38.1,24.61,37.24,46.49c-1,24.71-22.44,41.45-40.92,56.14s-37.67,36.41-31.77,60.51c5,20.61,25.8,31.54,40.25,46.51,27.24,28.21,31.35,77.79,9.08,109.44s-68,41.24-101,21.17c-18.38-11.2-32.52-30-52.19-38.26-17.93-7.52-38.47-5.06-55.64,3.47s-31.32,22.64-43.29,38.18c-21.11,27.4-36.47,60-61,83.9s-63.45,37.19-92.18,17.75C927.19,754.6,920,713.4,938,688.68c13.3-18.23,36.19-26.21,49.77-44.2,15.39-20.39,15.56-50.94,4.37-74.8s-32.08-41.51-54.79-52.88-47.4-17.15-71.85-22.75c-11-2.5-22.12-5.07-31.94-10.91s-18.3-15.6-20.1-27.32c-1.87-12.12,3.83-24.41,12.53-32.24s20-11.76,31.34-13.84c38.55-7.09,80.42,6.51,109.25,35.5,14.76,14.85,26,33.12,39.33,49.42s29.81,31.19,49.59,35.53c16.83,3.7,46.5-3.51,47.6-25.83.43-8.82-4.5-17.62-8.54-25C1087.19,465.8,1079.63,452.86,1075.73,437.67Z" transform="translate(-694.02 -236.9)"/><path class="cls-21" d="M1076.42,428.94c-4.74-23.23-.61-49.79,16.08-65.4s47.12-14.57,59.13,5.67c15.59,26.26-6.34,63.35,8.58,90,8.8,15.74,28.7,22.06,45.4,17.85s30.3-17,40.1-31.8,16.4-31.55,24-47.67c9.83-20.76,21.78-41,39-55.42s40.48-22.45,62-16.46,39.53,28.26,37.37,51.46c-2.43,26.2-26.43,42.79-47.1,57.37s-42.5,36.58-37.52,62.51c4.26,22.18,25.94,34.95,40.61,51.65,27.66,31.49,29.28,84.39,3.59,116.78s-75.36,40-109.62,16.86c-19.12-12.92-33.24-33.68-53.9-43.55-18.83-9-41-7.52-59.94.59s-34.9,22.3-48.63,38.15c-24.2,27.94-42.54,61.69-70.27,85.73s-70.23,36-100,13.73c-26.28-19.66-31.72-63.82-11-89.09,15.3-18.62,40.33-25.82,55.92-44.18,17.68-20.8,19.57-53.25,8.9-79.22s-32.11-45.88-55.86-59.24-49.93-20.85-75.87-28.16c-11.62-3.27-23.46-6.62-33.68-13.37s-18.77-17.59-20-30.14c-1.31-13,5.5-25.72,15.28-33.55s22.15-11.38,34.43-13c41.8-5.38,86,11.4,115.31,43.8,15,16.6,26.06,36.64,39.46,54.69s30.25,34.8,51.25,40.51c17.86,4.87,50.12-1.13,52.56-24.79,1-9.35-3.84-19-7.76-27.06C1087.14,459.46,1079.76,445.29,1076.42,428.94Z" transform="translate(-694.02 -236.9)"/><path class="cls-22" d="M1077.66,419.7c-3.79-24.95,2.15-52.93,20.95-68.59s51.42-12.85,63.17,9.32c15.26,28.77-10.37,66.95,4.14,96.12,8.56,17.22,29.58,25,47.75,21.5s33.5-16.42,44.85-31.55,19.39-32.6,28.49-49.31c11.72-21.51,25.69-42.31,45-56.71s44.74-21.59,67.54-14,40.85,32.23,37.23,56.75c-4.09,27.7-30.79,44-53.8,58.33s-47.7,36.5-43.82,64.32c3.33,23.8,25.89,38.57,40.7,57.13,27.93,35,26.7,91.29-2.71,124.26s-83.17,38.32-118.66,11.81c-19.8-14.79-33.79-37.63-55.43-49.26-19.7-10.6-43.62-10.27-64.39-2.72s-38.74,21.76-54.37,37.83c-27.56,28.33-49.14,63.17-80.28,87.17s-77.43,34.31-108.13,9c-27.12-22.34-30.47-69.57-6.77-95.25,17.48-18.94,44.76-25.19,62.54-43.82,20.15-21.12,24-55.49,14-83.67s-31.9-50.54-56.65-66-52.44-24.94-79.89-34.14c-12.3-4.13-24.82-8.34-35.41-16.09s-19.17-19.73-19.83-33.13c-.69-13.87,7.34-27,18.29-34.8s24.43-10.86,37.7-11.85c45.18-3.4,91.69,16.89,121.35,52.95,15.2,18.46,25.92,40.37,39.29,60.3s30.53,38.64,52.76,45.89c18.91,6.16,53.88,1.58,57.83-23.42,1.56-9.88-3-20.36-6.8-29.18C1087.45,452.72,1080.32,437.26,1077.66,419.7Z" transform="translate(-694.02 -236.9)"/><path class="cls-23" d="M1079.5,410c-2.66-26.71,5.29-56.1,26.36-71.69s55.94-10.79,67.31,13.41c14.77,31.41-14.9,70.55-1,102.35,8.22,18.76,30.35,28.25,50.07,25.49s36.88-15.58,49.92-31,22.66-33.56,33.37-50.8c13.8-22.2,30-43.53,51.5-57.74s49.25-20.45,73.3-11.15,42.06,36.52,36.79,62.36c-6,29.2-35.54,45-61.05,59s-53.28,36.12-50.67,65.9c2.23,25.46,25.63,42.41,40.49,63,28,38.72,23.53,98.46-9.91,131.86s-91.47,36.08-128.08,5.94c-20.43-16.82-34.17-41.87-56.74-55.43-20.57-12.35-46.27-13.34-69-6.46s-42.82,21-60.51,37.15c-31.19,28.57-56.32,64.38-91.11,88.14S895.51,812.34,864,783.76c-27.85-25.25-28.8-75.61-1.9-101.58,19.83-19.14,49.48-24.27,69.62-43.07C954.5,617.8,960.59,581.5,951.44,551S920,495.54,894.33,477.69,839.42,448.28,810.47,437c-13-5.06-26.18-10.24-37.13-19.06s-19.47-22-19.43-36.3c.05-14.78,9.41-28.3,21.61-35.95s26.84-10.17,41.15-10.5c48.7-1.09,97.49,23.06,127.32,63,15.28,20.47,25.56,44.33,38.8,66.25s30.6,42.76,54.06,51.69c20,7.6,57.78,4.68,63.42-21.65,2.23-10.41-2.13-21.81-5.66-31.39C1088.17,445.58,1081.38,428.76,1079.5,410Z" transform="translate(-694.02 -236.9)"/><path class="cls-24" d="M1082,399.7c-1.36-28.52,8.83-59.31,32.33-74.7s60.67-8.35,71.53,18c14.08,34.19-20,74.12-6.8,108.68,7.78,20.39,31,31.7,52.33,29.87s40.49-14.5,55.36-30.17S1313,417,1325.48,399.27c16.06-22.81,34.63-44.57,58.54-58.47s54-19,79.34-7.76,43.11,41.13,36,68.29c-8,30.69-40.7,45.85-68.88,59.25s-59.24,35.41-58.11,67.19c1,27.17,25.13,46.48,39.93,69.14,27.91,42.7,19.73,105.91-18.06,139.53s-100.25,33.24-137.87-.82c-21-19-34.33-46.38-57.81-62-21.39-14.27-48.93-16.75-73.72-10.71s-47.16,19.87-67.06,36.1c-35.11,28.61-64.11,65.26-102.8,88.56S861.81,817,829.56,784.82c-28.5-28.38-26.68-81.92,3.67-108,22.37-19.24,54.49-23,77.17-41.89,25.71-21.37,34.29-59.59,26.18-92.5s-30.61-60.67-57.2-81.07-57.3-34.3-87.76-47.92c-13.64-6.11-27.53-12.34-38.79-22.32S733.16,366.63,734,351.46c.88-15.69,11.7-29.54,25.22-37s29.4-9.31,44.78-8.85c52.36,1.55,103.4,29.91,133.18,74,15.25,22.59,24.95,48.52,37.93,72.54s30.45,47.13,55.14,57.93c21,9.18,61.78,8.19,69.32-19.48,3-10.93-1.06-23.28-4.31-33.65C1089.33,438,1083,419.78,1082,399.7Z" transform="translate(-694.02 -236.9)"/><path class="cls-25" d="M1085.33,389c.15-30.38,12.83-62.52,38.93-77.56s65.62-5.49,75.79,23.11c13.2,37.11-25.62,77.63-13.42,115.08,7.21,22.09,31.52,35.4,54.51,34.64s44.3-13.14,61.14-29,30.09-35.07,44.48-53.2c18.53-23.35,39.7-45.42,66.16-58.86s59.09-17.16,85.63-3.83,44,46.1,34.81,74.56c-10.35,32.16-46.28,46.44-77.3,59.11s-65.6,34.32-66.18,68.14c-.5,28.93,24.37,50.79,39,75.68,27.56,46.92,15.22,113.62-27.25,147.22s-109.51,29.74-148-8.54c-21.47-21.36-34.26-51.18-58.59-69.13-22.16-16.35-51.59-20.51-78.56-15.48s-51.75,18.49-74,34.62c-39.3,28.44-72.51,65.76-115.37,88.36S825.38,820,792.55,784c-29-31.73-24-88.52,10-114.54,25.1-19.19,59.81-21.43,85.23-40.2,28.81-21.28,40.17-61.4,33.31-96.82s-29.45-66.15-56.86-89.3-59.6-39.64-91.53-55.8c-14.31-7.25-28.88-14.64-40.4-25.87s-19.75-27.11-18-43.18c1.83-16.61,14.22-30.72,29.17-37.89s32.08-8.25,48.58-6.91c56.13,4.56,109.34,37.54,138.83,86.06C946,384.43,955,412.51,967.57,438.75s30,51.77,55.95,64.61c22,10.93,65.88,12.14,75.54-16.83,3.81-11.45.16-24.79-2.74-36C1091,430.09,1085.22,410.34,1085.33,389Z" transform="translate(-694.02 -236.9)"/><path class="cls-26" d="M1089.48,377.72c1.87-32.27,17.29-65.71,46.16-80.23s70.77-2.18,80.08,28.77c12.09,40.15-31.88,81-20.88,121.5,6.49,23.88,31.85,39.37,56.59,39.85s48.29-11.51,67.28-27.38,34.28-35.59,50.75-54.05c21.21-23.76,45.18-46,74.35-58.84s64.42-14.94,92.17.7,44.62,51.42,33.18,81.15c-12.93,33.58-52.31,46.76-86.33,58.49s-72.37,32.81-74.9,68.7c-2.16,30.71,23.31,55.31,37.61,82.57,27,51.38,10,121.56-37.54,154.9s-119.27,25.49-158.44-17.32c-21.85-23.89-33.9-56.28-59-76.71-22.88-18.6-54.25-24.66-83.49-20.82s-56.62,16.76-81.46,32.66c-43.8,28-81.56,65.82-128.85,87.45s-110.66,22-143.9-18C723.5,745.81,732,685.76,770.06,660c28-19,65.43-19.44,93.78-38,32.13-21,46.59-63,41.22-101s-27.9-71.92-56-98-61.77-45.42-95.15-64.37c-15-8.5-30.18-17.17-41.92-29.74S692.28,299,695.08,282c2.9-17.56,17-31.85,33.45-38.63s34.92-7,52.56-4.64c60,8,115.29,46,144.24,99.15,14.82,27.24,22.86,57.58,34.89,86.16s29.36,56.66,56.45,71.75c23.05,12.84,70.05,16.56,82.05-13.67,4.75-11.95,1.58-26.34-.91-38.39C1093.26,421.73,1088.16,400.43,1089.48,377.72Z" transform="translate(-694.02 -236.9)"/></svg>